<?xml version="1.0" encoding="utf-8" standalone="no"?>
<!DOCTYPE svg PUBLIC "-//W3C//DTD SVG 1.1//EN"
  "http://www.w3.org/Graphics/SVG/1.1/DTD/svg11.dtd">
<!-- Created with matplotlib (http://matplotlib.org/) -->
<svg height="139pt" version="1.1" viewBox="0 0 203 139" width="203pt" xmlns="http://www.w3.org/2000/svg" xmlns:xlink="http://www.w3.org/1999/xlink">
 <defs>
  <style type="text/css">
*{stroke-linecap:butt;stroke-linejoin:round;stroke-miterlimit:100000;}
  </style>
 </defs>
 <g id="figure_1">
  <g id="patch_1">
   <path d="M 0 139.847244 
L 203.199528 139.847244 
L 203.199528 -0 
L 0 -0 
z
" style="fill:#ffffff;"/>
  </g>
  <g id="axes_1">
   <g id="patch_2">
    <path d="M 37.845 109.247244 
L 191.624528 109.247244 
L 191.624528 7.2 
L 37.845 7.2 
z
" style="fill:#ffffff;"/>
   </g>
   <g id="line2d_1">
    <path clip-path="url(#p4478b0022b)" d="M 37.845 58.223622 
L 40.983358 52.557996 
L 44.121715 46.977212 
L 47.260073 41.564844 
L 50.398431 36.401941 
L 53.536789 31.565819 
L 56.675146 27.128898 
L 59.813504 23.157621 
L 62.951862 19.711459 
L 66.090219 16.842017 
L 69.228577 14.592266 
L 72.366935 12.995896 
L 75.505292 12.076812 
L 78.64365 11.848778 
L 81.782008 12.315209 
L 84.920366 13.469119 
L 88.058723 15.293229 
L 91.197081 17.760223 
L 94.335439 20.833158 
L 97.473796 24.466016 
L 100.612154 28.604395 
L 103.750512 33.186322 
L 106.88887 38.143184 
L 110.027227 43.400751 
L 113.165585 48.880291 
L 116.303943 54.499748 
L 119.4423 60.174969 
L 122.580658 65.82097 
L 125.719016 71.353199 
L 128.857373 76.688813 
L 131.995731 81.74791 
L 135.134089 86.454731 
L 138.272447 90.738789 
L 141.410804 94.535933 
L 144.549162 97.789298 
L 147.68752 100.450166 
L 150.825877 102.478691 
L 153.964235 103.844494 
L 157.102593 104.527124 
L 160.240951 104.516358 
L 163.379308 103.812356 
L 166.517666 102.425663 
L 169.656024 100.377042 
L 172.794381 97.697173 
L 175.932739 94.426186 
L 179.071097 90.613065 
L 182.209454 86.314911 
L 185.347812 81.596089 
L 188.48617 76.527264 
L 191.624528 71.184341 
" style="fill:none;stroke:#023474;stroke-linecap:square;"/>
    <defs>
     <path d="M 0 1.5 
C 0.397805 1.5 0.77937 1.341951 1.06066 1.06066 
C 1.341951 0.77937 1.5 0.397805 1.5 0 
C 1.5 -0.397805 1.341951 -0.77937 1.06066 -1.06066 
C 0.77937 -1.341951 0.397805 -1.5 0 -1.5 
C -0.397805 -1.5 -0.77937 -1.341951 -1.06066 -1.06066 
C -1.341951 -0.77937 -1.5 -0.397805 -1.5 0 
C -1.5 0.397805 -1.341951 0.77937 -1.06066 1.06066 
C -0.77937 1.341951 -0.397805 1.5 0 1.5 
z
" id="m5bc1dd279d"/>
    </defs>
    <g clip-path="url(#p4478b0022b)">
     <use style="fill:#023474;" x="37.845" xlink:href="#m5bc1dd279d" y="58.2236220472"/>
     <use style="fill:#023474;" x="40.9833577053" xlink:href="#m5bc1dd279d" y="52.5579955157"/>
     <use style="fill:#023474;" x="44.1217154106" xlink:href="#m5bc1dd279d" y="46.9772118977"/>
     <use style="fill:#023474;" x="47.2600731159" xlink:href="#m5bc1dd279d" y="41.5648435819"/>
     <use style="fill:#023474;" x="50.3984308211" xlink:href="#m5bc1dd279d" y="36.401940933"/>
     <use style="fill:#023474;" x="53.5367885264" xlink:href="#m5bc1dd279d" y="31.5658185606"/>
     <use style="fill:#023474;" x="56.6751462317" xlink:href="#m5bc1dd279d" y="27.1288975307"/>
     <use style="fill:#023474;" x="59.813503937" xlink:href="#m5bc1dd279d" y="23.1576208579"/>
     <use style="fill:#023474;" x="62.9518616423" xlink:href="#m5bc1dd279d" y="19.71145852"/>
     <use style="fill:#023474;" x="66.0902193476" xlink:href="#m5bc1dd279d" y="16.8420168931"/>
     <use style="fill:#023474;" x="69.2285770529" xlink:href="#m5bc1dd279d" y="14.5922659447"/>
     <use style="fill:#023474;" x="72.3669347582" xlink:href="#m5bc1dd279d" y="12.9958957572"/>
     <use style="fill:#023474;" x="75.5052924634" xlink:href="#m5bc1dd279d" y="12.0768120182"/>
     <use style="fill:#023474;" x="78.6436501687" xlink:href="#m5bc1dd279d" y="11.8487780321"/>
     <use style="fill:#023474;" x="81.782007874" xlink:href="#m5bc1dd279d" y="12.3152086141"/>
     <use style="fill:#023474;" x="84.9203655793" xlink:href="#m5bc1dd279d" y="13.4691189534"/>
     <use style="fill:#023474;" x="88.0587232846" xlink:href="#m5bc1dd279d" y="15.2932292108"/>
     <use style="fill:#023474;" x="91.1970809899" xlink:href="#m5bc1dd279d" y="17.7602232849"/>
     <use style="fill:#023474;" x="94.3354386952" xlink:href="#m5bc1dd279d" y="20.8331578714"/>
     <use style="fill:#023474;" x="97.4737964004" xlink:href="#m5bc1dd279d" y="24.4660156901"/>
     <use style="fill:#023474;" x="100.612154106" xlink:href="#m5bc1dd279d" y="28.6043945951"/>
     <use style="fill:#023474;" x="103.750511811" xlink:href="#m5bc1dd279d" y="33.186322248"/>
     <use style="fill:#023474;" x="106.888869516" xlink:href="#m5bc1dd279d" y="38.1431841559"/>
     <use style="fill:#023474;" x="110.027227222" xlink:href="#m5bc1dd279d" y="43.400751175"/>
     <use style="fill:#023474;" x="113.165584927" xlink:href="#m5bc1dd279d" y="48.8802910943"/>
     <use style="fill:#023474;" x="116.303942632" xlink:href="#m5bc1dd279d" y="54.4997476522"/>
     <use style="fill:#023474;" x="119.442300337" xlink:href="#m5bc1dd279d" y="60.174969332"/>
     <use style="fill:#023474;" x="122.580658043" xlink:href="#m5bc1dd279d" y="65.8209695323"/>
     <use style="fill:#023474;" x="125.719015748" xlink:href="#m5bc1dd279d" y="71.3531992445"/>
     <use style="fill:#023474;" x="128.857373453" xlink:href="#m5bc1dd279d" y="76.688813176"/>
     <use style="fill:#023474;" x="131.995731159" xlink:href="#m5bc1dd279d" y="81.7479103612"/>
     <use style="fill:#023474;" x="135.134088864" xlink:href="#m5bc1dd279d" y="86.4547306801"/>
     <use style="fill:#023474;" x="138.272446569" xlink:href="#m5bc1dd279d" y="90.7387893686"/>
     <use style="fill:#023474;" x="141.410804274" xlink:href="#m5bc1dd279d" y="94.5359325297"/>
     <use style="fill:#023474;" x="144.54916198" xlink:href="#m5bc1dd279d" y="97.7892978399"/>
     <use style="fill:#023474;" x="147.687519685" xlink:href="#m5bc1dd279d" y="100.450166064"/>
     <use style="fill:#023474;" x="150.82587739" xlink:href="#m5bc1dd279d" y="102.478690627"/>
     <use style="fill:#023474;" x="153.964235096" xlink:href="#m5bc1dd279d" y="103.844494317"/>
     <use style="fill:#023474;" x="157.102592801" xlink:href="#m5bc1dd279d" y="104.527124187"/>
     <use style="fill:#023474;" x="160.240950506" xlink:href="#m5bc1dd279d" y="104.516357835"/>
     <use style="fill:#023474;" x="163.379308211" xlink:href="#m5bc1dd279d" y="103.812356488"/>
     <use style="fill:#023474;" x="166.517665917" xlink:href="#m5bc1dd279d" y="102.425662586"/>
     <use style="fill:#023474;" x="169.656023622" xlink:href="#m5bc1dd279d" y="100.377041908"/>
     <use style="fill:#023474;" x="172.794381327" xlink:href="#m5bc1dd279d" y="97.6971726042"/>
     <use style="fill:#023474;" x="175.932739033" xlink:href="#m5bc1dd279d" y="94.4261857925"/>
     <use style="fill:#023474;" x="179.071096738" xlink:href="#m5bc1dd279d" y="90.6130645903"/>
     <use style="fill:#023474;" x="182.209454443" xlink:href="#m5bc1dd279d" y="86.3149105927"/>
     <use style="fill:#023474;" x="185.347812148" xlink:href="#m5bc1dd279d" y="81.5960887745"/>
     <use style="fill:#023474;" x="188.486169854" xlink:href="#m5bc1dd279d" y="76.5272636224"/>
     <use style="fill:#023474;" x="191.624527559" xlink:href="#m5bc1dd279d" y="71.1843409329"/>
    </g>
   </g>
   <g id="line2d_2">
    <path clip-path="url(#p4478b0022b)" d="M 37.845 11.838511 
L 40.983358 11.992978 
L 44.121715 12.45535 
L 47.260073 13.222547 
L 50.398431 14.28946 
L 53.536789 15.648982 
L 56.675146 17.29206 
L 59.813504 19.20775 
L 62.951862 21.383293 
L 66.090219 23.8042 
L 69.228577 26.454346 
L 72.366935 29.316082 
L 75.505292 32.370348 
L 78.64365 35.596801 
L 81.782008 38.973954 
L 84.920366 42.479313 
L 88.058723 46.089531 
L 91.197081 49.780566 
L 94.335439 53.527832 
L 97.473796 57.306374 
L 100.612154 61.091024 
L 103.750512 64.856577 
L 106.88887 68.577954 
L 110.027227 72.230368 
L 113.165585 75.789495 
L 116.303943 79.23163 
L 119.4423 82.533847 
L 122.580658 85.674154 
L 125.719016 88.631635 
L 128.857373 91.386593 
L 131.995731 93.920679 
L 135.134089 96.217016 
L 138.272447 98.26031 
L 141.410804 100.036952 
L 144.549162 101.535109 
L 147.68752 102.744803 
L 150.825877 103.657978 
L 153.964235 104.268551 
L 157.102593 104.572457 
L 160.240951 104.56767 
L 163.379308 104.254223 
L 166.517666 103.634203 
L 169.656024 102.711741 
L 172.794381 101.492979 
L 175.932739 99.986035 
L 179.071097 98.200945 
L 182.209454 96.149599 
L 185.347812 93.845659 
L 188.48617 91.304469 
L 191.624528 88.542954 
" style="fill:none;stroke:#ef0107;stroke-linecap:square;"/>
    <defs>
     <path d="M -1.5 1.5 
L 1.5 1.5 
L 1.5 -1.5 
L -1.5 -1.5 
z
" id="m88e18eaaf1"/>
    </defs>
    <g clip-path="url(#p4478b0022b)">
     <use style="fill:#ef0107;" x="37.845" xlink:href="#m88e18eaaf1" y="11.8385110952"/>
     <use style="fill:#ef0107;" x="40.9833577053" xlink:href="#m88e18eaaf1" y="11.992977927"/>
     <use style="fill:#ef0107;" x="44.1217154106" xlink:href="#m88e18eaaf1" y="12.455349644"/>
     <use style="fill:#ef0107;" x="47.2600731159" xlink:href="#m88e18eaaf1" y="13.2225467625"/>
     <use style="fill:#ef0107;" x="50.3984308211" xlink:href="#m88e18eaaf1" y="14.2894596038"/>
     <use style="fill:#ef0107;" x="53.5367885264" xlink:href="#m88e18eaaf1" y="15.6489823254"/>
     <use style="fill:#ef0107;" x="56.6751462317" xlink:href="#m88e18eaaf1" y="17.2920602473"/>
     <use style="fill:#ef0107;" x="59.813503937" xlink:href="#m88e18eaaf1" y="19.207750158"/>
     <use style="fill:#ef0107;" x="62.9518616423" xlink:href="#m88e18eaaf1" y="21.3832931981"/>
     <use style="fill:#ef0107;" x="66.0902193476" xlink:href="#m88e18eaaf1" y="23.8041998372"/>
     <use style="fill:#ef0107;" x="69.2285770529" xlink:href="#m88e18eaaf1" y="26.4543463765"/>
     <use style="fill:#ef0107;" x="72.3669347582" xlink:href="#m88e18eaaf1" y="29.3160823358"/>
     <use style="fill:#ef0107;" x="75.5052924634" xlink:href="#m88e18eaaf1" y="32.3703480092"/>
     <use style="fill:#ef0107;" x="78.6436501687" xlink:href="#m88e18eaaf1" y="35.5968014062"/>
     <use style="fill:#ef0107;" x="81.782007874" xlink:href="#m88e18eaaf1" y="38.9739537334"/>
     <use style="fill:#ef0107;" x="84.9203655793" xlink:href="#m88e18eaaf1" y="42.4793125138"/>
     <use style="fill:#ef0107;" x="88.0587232846" xlink:href="#m88e18eaaf1" y="46.0895313911"/>
     <use style="fill:#ef0107;" x="91.1970809899" xlink:href="#m88e18eaaf1" y="49.7805656206"/>
     <use style="fill:#ef0107;" x="94.3354386952" xlink:href="#m88e18eaaf1" y="53.5278322121"/>
     <use style="fill:#ef0107;" x="97.4737964004" xlink:href="#m88e18eaaf1" y="57.3063736574"/>
     <use style="fill:#ef0107;" x="100.612154106" xlink:href="#m88e18eaaf1" y="61.0910241514"/>
     <use style="fill:#ef0107;" x="103.750511811" xlink:href="#m88e18eaaf1" y="64.8565772019"/>
     <use style="fill:#ef0107;" x="106.888869516" xlink:href="#m88e18eaaf1" y="68.5779535092"/>
     <use style="fill:#ef0107;" x="110.027227222" xlink:href="#m88e18eaaf1" y="72.230367999"/>
     <use style="fill:#ef0107;" x="113.165584927" xlink:href="#m88e18eaaf1" y="75.789494896"/>
     <use style="fill:#ef0107;" x="116.303942632" xlink:href="#m88e18eaaf1" y="79.231629738"/>
     <use style="fill:#ef0107;" x="119.442300337" xlink:href="#m88e18eaaf1" y="82.533847252"/>
     <use style="fill:#ef0107;" x="122.580658043" xlink:href="#m88e18eaaf1" y="85.6741540411"/>
     <use style="fill:#ef0107;" x="125.719015748" xlink:href="#m88e18eaaf1" y="88.6316350648"/>
     <use style="fill:#ef0107;" x="128.857373453" xlink:href="#m88e18eaaf1" y="91.3865929366"/>
     <use style="fill:#ef0107;" x="131.995731159" xlink:href="#m88e18eaaf1" y="93.9206791132"/>
     <use style="fill:#ef0107;" x="135.134088864" xlink:href="#m88e18eaaf1" y="96.2170160984"/>
     <use style="fill:#ef0107;" x="138.272446569" xlink:href="#m88e18eaaf1" y="98.260309851"/>
     <use style="fill:#ef0107;" x="141.410804274" xlink:href="#m88e18eaaf1" y="100.036951646"/>
     <use style="fill:#ef0107;" x="144.54916198" xlink:href="#m88e18eaaf1" y="101.535108711"/>
     <use style="fill:#ef0107;" x="147.687519685" xlink:href="#m88e18eaaf1" y="102.744803034"/>
     <use style="fill:#ef0107;" x="150.82587739" xlink:href="#m88e18eaaf1" y="103.657977823"/>
     <use style="fill:#ef0107;" x="153.964235096" xlink:href="#m88e18eaaf1" y="104.268551158"/>
     <use style="fill:#ef0107;" x="157.102592801" xlink:href="#m88e18eaaf1" y="104.572456505"/>
     <use style="fill:#ef0107;" x="160.240950506" xlink:href="#m88e18eaaf1" y="104.567669797"/>
     <use style="fill:#ef0107;" x="163.379308211" xlink:href="#m88e18eaaf1" y="104.254222914"/>
     <use style="fill:#ef0107;" x="166.517665917" xlink:href="#m88e18eaaf1" y="103.634203472"/>
     <use style="fill:#ef0107;" x="169.656023622" xlink:href="#m88e18eaaf1" y="102.711740918"/>
     <use style="fill:#ef0107;" x="172.794381327" xlink:href="#m88e18eaaf1" y="101.492979029"/>
     <use style="fill:#ef0107;" x="175.932739033" xlink:href="#m88e18eaaf1" y="99.9860349903"/>
     <use style="fill:#ef0107;" x="179.071096738" xlink:href="#m88e18eaaf1" y="98.2009453363"/>
     <use style="fill:#ef0107;" x="182.209454443" xlink:href="#m88e18eaaf1" y="96.1495991035"/>
     <use style="fill:#ef0107;" x="185.347812148" xlink:href="#m88e18eaaf1" y="93.8456586482"/>
     <use style="fill:#ef0107;" x="188.486169854" xlink:href="#m88e18eaaf1" y="91.3044686522"/>
     <use style="fill:#ef0107;" x="191.624527559" xlink:href="#m88e18eaaf1" y="88.5429539241"/>
    </g>
   </g>
   <g id="patch_3">
    <path d="M 37.845 7.2 
L 191.624528 7.2 
" style="fill:none;stroke:#000000;stroke-linecap:square;stroke-linejoin:miter;"/>
   </g>
   <g id="patch_4">
    <path d="M 191.624528 109.247244 
L 191.624528 7.2 
" style="fill:none;stroke:#000000;stroke-linecap:square;stroke-linejoin:miter;"/>
   </g>
   <g id="patch_5">
    <path d="M 37.845 109.247244 
L 37.845 7.2 
" style="fill:none;stroke:#000000;stroke-linecap:square;stroke-linejoin:miter;"/>
   </g>
   <g id="patch_6">
    <path d="M 37.845 109.247244 
L 191.624528 109.247244 
" style="fill:none;stroke:#000000;stroke-linecap:square;stroke-linejoin:miter;"/>
   </g>
   <g id="matplotlib.axis_1">
    <g id="xtick_1">
     <g id="line2d_3">
      <path clip-path="url(#p4478b0022b)" d="M 37.845 109.247244 
L 37.845 7.2 
" style="fill:none;stroke:#000000;stroke-dasharray:1.000000,3.000000;stroke-dashoffset:0.0;stroke-width:0.5;"/>
     </g>
     <g id="line2d_4">
      <defs>
       <path d="M 0 0 
L 0 -4 
" id="m018ebc6f9f" style="stroke:#000000;stroke-width:0.5;"/>
      </defs>
      <g>
       <use style="stroke:#000000;stroke-width:0.5;" x="37.845" xlink:href="#m018ebc6f9f" y="109.247244094"/>
      </g>
     </g>
     <g id="line2d_5">
      <defs>
       <path d="M 0 0 
L 0 4 
" id="m82d715aae9" style="stroke:#000000;stroke-width:0.5;"/>
      </defs>
      <g>
       <use style="stroke:#000000;stroke-width:0.5;" x="37.845" xlink:href="#m82d715aae9" y="7.2"/>
      </g>
     </g>
     <g id="text_1">
      <!-- 0.0 -->
      <defs>
       <path d="M 18.09375 4.296875 
Q 18.09375 2.09375 16.4375 0.5 
Q 14.796875 -1.09375 12.5 -1.09375 
Q 10.203125 -1.09375 8.59375 0.5 
Q 7 2.09375 7 4.390625 
Q 7 6.703125 8.640625 8.34375 
Q 10.296875 10 12.59375 10 
Q 14.796875 10 16.4375 8.296875 
Q 18.09375 6.59375 18.09375 4.296875 
" id="STIXGeneral-Regular-2e"/>
       <path d="M 47.59375 33 
Q 47.59375 26.296875 46.296875 20.34375 
Q 45 14.40625 42.453125 9.40625 
Q 39.90625 4.40625 35.40625 1.5 
Q 30.90625 -1.40625 25 -1.40625 
Q 18.90625 -1.40625 14.296875 1.6875 
Q 9.703125 4.796875 7.203125 10 
Q 4.703125 15.203125 3.546875 21.09375 
Q 2.40625 27 2.40625 33.59375 
Q 2.40625 42.90625 4.703125 50.34375 
Q 7 57.796875 12.34375 62.6875 
Q 17.703125 67.59375 25.40625 67.59375 
Q 35.203125 67.59375 41.390625 58 
Q 47.59375 48.40625 47.59375 33 
M 38 32.5 
Q 38 48.296875 34.640625 56.640625 
Q 31.296875 65 24.796875 65 
Q 18.59375 65 15.296875 56.59375 
Q 12 48.203125 12 32.90625 
Q 12 17.5 15.296875 9.34375 
Q 18.59375 1.203125 25 1.203125 
Q 31.296875 1.203125 34.640625 9.34375 
Q 38 17.5 38 32.5 
" id="STIXGeneral-Regular-30"/>
      </defs>
      <g transform="translate(33.47 118.028025344)scale(0.07 -0.07)">
       <use xlink:href="#STIXGeneral-Regular-30"/>
       <use x="49.99998474121094" xlink:href="#STIXGeneral-Regular-2e"/>
       <use x="74.99996948242188" xlink:href="#STIXGeneral-Regular-30"/>
      </g>
     </g>
    </g>
    <g id="xtick_2">
     <g id="line2d_6">
      <path clip-path="url(#p4478b0022b)" d="M 76.289882 109.247244 
L 76.289882 7.2 
" style="fill:none;stroke:#000000;stroke-dasharray:1.000000,3.000000;stroke-dashoffset:0.0;stroke-width:0.5;"/>
     </g>
     <g id="line2d_7">
      <g>
       <use style="stroke:#000000;stroke-width:0.5;" x="76.2898818898" xlink:href="#m018ebc6f9f" y="109.247244094"/>
      </g>
     </g>
     <g id="line2d_8">
      <g>
       <use style="stroke:#000000;stroke-width:0.5;" x="76.2898818898" xlink:href="#m82d715aae9" y="7.2"/>
      </g>
     </g>
     <g id="text_2">
      <!-- 0.5 -->
      <defs>
       <path d="M 43.796875 68.09375 
L 40.203125 59.59375 
Q 39.59375 58.296875 37.5 58.296875 
L 18.09375 58.296875 
L 14.09375 49.796875 
Q 25.09375 47.703125 30 45.25 
Q 34.90625 42.796875 39.09375 37 
Q 42.59375 32.203125 42.59375 24.296875 
Q 42.59375 17.09375 40.25 12.1875 
Q 37.90625 7.296875 32.796875 3.5 
Q 26 -1.40625 15.796875 -1.40625 
Q 10.09375 -1.40625 6.59375 0.296875 
Q 3.09375 2 3.09375 4.796875 
Q 3.09375 8.59375 7.59375 8.59375 
Q 11.203125 8.59375 15 5.5 
Q 18.90625 2.296875 22.09375 2.296875 
Q 27.296875 2.296875 31.4375 7.5 
Q 35.59375 12.703125 35.59375 19.203125 
Q 35.59375 28.796875 28.90625 34.203125 
Q 20.203125 41.203125 7.59375 41.203125 
Q 6.40625 41.203125 6.40625 42 
L 6.5 42.5 
L 17.40625 66.203125 
L 38.09375 66.203125 
Q 39.796875 66.203125 40.75 66.703125 
Q 41.703125 67.203125 42.90625 68.796875 
z
" id="STIXGeneral-Regular-35"/>
      </defs>
      <g transform="translate(71.9148818898 118.028025344)scale(0.07 -0.07)">
       <use xlink:href="#STIXGeneral-Regular-30"/>
       <use x="49.99998474121094" xlink:href="#STIXGeneral-Regular-2e"/>
       <use x="74.99996948242188" xlink:href="#STIXGeneral-Regular-35"/>
      </g>
     </g>
    </g>
    <g id="xtick_3">
     <g id="line2d_9">
      <path clip-path="url(#p4478b0022b)" d="M 114.734764 109.247244 
L 114.734764 7.2 
" style="fill:none;stroke:#000000;stroke-dasharray:1.000000,3.000000;stroke-dashoffset:0.0;stroke-width:0.5;"/>
     </g>
     <g id="line2d_10">
      <g>
       <use style="stroke:#000000;stroke-width:0.5;" x="114.73476378" xlink:href="#m018ebc6f9f" y="109.247244094"/>
      </g>
     </g>
     <g id="line2d_11">
      <g>
       <use style="stroke:#000000;stroke-width:0.5;" x="114.73476378" xlink:href="#m82d715aae9" y="7.2"/>
      </g>
     </g>
     <g id="text_3">
      <!-- 1.0 -->
      <defs>
       <path d="M 39.40625 0 
L 11.796875 0 
L 11.796875 1.5 
Q 17.296875 1.796875 19.296875 3.546875 
Q 21.296875 5.296875 21.296875 9.5 
L 21.296875 54.40625 
Q 21.296875 59.296875 18.296875 59.296875 
Q 16.90625 59.296875 13.796875 58.09375 
L 11.09375 57.09375 
L 11.09375 58.5 
L 29 67.59375 
L 29.90625 67.296875 
L 29.90625 7.59375 
Q 29.90625 4.296875 31.90625 2.890625 
Q 33.90625 1.5 39.40625 1.5 
z
" id="STIXGeneral-Regular-31"/>
      </defs>
      <g transform="translate(110.35976378 118.028025344)scale(0.07 -0.07)">
       <use xlink:href="#STIXGeneral-Regular-31"/>
       <use x="49.99998474121094" xlink:href="#STIXGeneral-Regular-2e"/>
       <use x="74.99996948242188" xlink:href="#STIXGeneral-Regular-30"/>
      </g>
     </g>
    </g>
    <g id="xtick_4">
     <g id="line2d_12">
      <path clip-path="url(#p4478b0022b)" d="M 153.179646 109.247244 
L 153.179646 7.2 
" style="fill:none;stroke:#000000;stroke-dasharray:1.000000,3.000000;stroke-dashoffset:0.0;stroke-width:0.5;"/>
     </g>
     <g id="line2d_13">
      <g>
       <use style="stroke:#000000;stroke-width:0.5;" x="153.179645669" xlink:href="#m018ebc6f9f" y="109.247244094"/>
      </g>
     </g>
     <g id="line2d_14">
      <g>
       <use style="stroke:#000000;stroke-width:0.5;" x="153.179645669" xlink:href="#m82d715aae9" y="7.2"/>
      </g>
     </g>
     <g id="text_4">
      <!-- 1.5 -->
      <g transform="translate(148.804645669 118.028025344)scale(0.07 -0.07)">
       <use xlink:href="#STIXGeneral-Regular-31"/>
       <use x="49.99998474121094" xlink:href="#STIXGeneral-Regular-2e"/>
       <use x="74.99996948242188" xlink:href="#STIXGeneral-Regular-35"/>
      </g>
     </g>
    </g>
    <g id="xtick_5">
     <g id="line2d_15">
      <path clip-path="url(#p4478b0022b)" d="M 191.624528 109.247244 
L 191.624528 7.2 
" style="fill:none;stroke:#000000;stroke-dasharray:1.000000,3.000000;stroke-dashoffset:0.0;stroke-width:0.5;"/>
     </g>
     <g id="line2d_16">
      <g>
       <use style="stroke:#000000;stroke-width:0.5;" x="191.624527559" xlink:href="#m018ebc6f9f" y="109.247244094"/>
      </g>
     </g>
     <g id="line2d_17">
      <g>
       <use style="stroke:#000000;stroke-width:0.5;" x="191.624527559" xlink:href="#m82d715aae9" y="7.2"/>
      </g>
     </g>
     <g id="text_5">
      <!-- 2.0 -->
      <defs>
       <path d="M 47.40625 13.703125 
L 42 0 
L 2.90625 0 
L 2.90625 1.203125 
L 20.703125 20.09375 
Q 27.703125 27.40625 30.703125 33.5 
Q 33.703125 39.59375 33.703125 46.09375 
Q 33.703125 52.796875 30 56.5 
Q 26.296875 60.203125 19.796875 60.203125 
Q 14.40625 60.203125 11.25 57.390625 
Q 8.09375 54.59375 5.09375 47.203125 
L 3 47.703125 
Q 4.703125 57 9.84375 62.296875 
Q 15 67.59375 23.796875 67.59375 
Q 32.09375 67.59375 37.1875 62.59375 
Q 42.296875 57.59375 42.296875 50 
Q 42.296875 38.703125 29.5 25.203125 
L 13 7.59375 
L 36.40625 7.59375 
Q 39.703125 7.59375 41.640625 8.890625 
Q 43.59375 10.203125 46 14.296875 
z
" id="STIXGeneral-Regular-32"/>
      </defs>
      <g transform="translate(187.249527559 118.028025344)scale(0.07 -0.07)">
       <use xlink:href="#STIXGeneral-Regular-32"/>
       <use x="49.99998474121094" xlink:href="#STIXGeneral-Regular-2e"/>
       <use x="74.99996948242188" xlink:href="#STIXGeneral-Regular-30"/>
      </g>
     </g>
    </g>
    <g id="text_6">
     <!-- X -->
     <defs>
      <path d="M 70.40625 0 
L 40.796875 0 
L 40.796875 1.90625 
L 43.40625 2.09375 
Q 48.40625 2.40625 48.40625 5 
Q 48.40625 7.203125 43.296875 14.796875 
L 33.796875 28.90625 
L 21.90625 14 
Q 16.59375 7.40625 16.59375 5.09375 
Q 16.59375 3.59375 18.25 2.890625 
Q 19.90625 2.203125 24.203125 1.90625 
L 24.203125 0 
L 1 0 
L 1 1.90625 
Q 4.90625 2.296875 7.34375 4.1875 
Q 9.796875 6.09375 15.5 13.296875 
L 31.09375 32.796875 
L 20.5 48.296875 
Q 13.5 58.5 10.390625 61.140625 
Q 7.296875 63.796875 2.203125 64.296875 
L 2.203125 66.203125 
L 32.296875 66.203125 
L 32.296875 64.296875 
L 29.40625 64.203125 
Q 27.09375 64.09375 25.9375 63.5 
Q 24.796875 62.90625 24.796875 61.296875 
Q 24.796875 60.703125 24.9375 60.046875 
Q 25.09375 59.40625 25.546875 58.5 
Q 26 57.59375 26.390625 56.84375 
Q 26.796875 56.09375 27.640625 54.796875 
Q 28.5 53.5 29.09375 52.59375 
Q 29.703125 51.703125 31 49.84375 
Q 32.296875 48 33.09375 46.796875 
L 37.5 40.40625 
L 48.703125 54.40625 
Q 52.703125 59.296875 52.703125 61.09375 
Q 52.703125 62.796875 51.296875 63.5 
Q 49.90625 64.203125 45.90625 64.296875 
L 45.90625 66.203125 
L 69.59375 66.203125 
L 69.59375 64.296875 
Q 64.796875 64 62 62.140625 
Q 59.203125 60.296875 54.40625 54.40625 
L 40.09375 36.703125 
L 59.296875 9.296875 
Q 62.203125 5.09375 64.296875 3.75 
Q 66.40625 2.40625 70.40625 1.90625 
z
" id="STIXGeneral-Regular-58"/>
     </defs>
     <g transform="translate(111.485623155 130.693962844)scale(0.09 -0.09)">
      <use xlink:href="#STIXGeneral-Regular-58"/>
     </g>
    </g>
   </g>
   <g id="matplotlib.axis_2">
    <g id="ytick_1">
     <g id="line2d_18">
      <path clip-path="url(#p4478b0022b)" d="M 37.845 104.608733 
L 191.624528 104.608733 
" style="fill:none;stroke:#000000;stroke-dasharray:1.000000,3.000000;stroke-dashoffset:0.0;stroke-width:0.5;"/>
     </g>
     <g id="line2d_19">
      <defs>
       <path d="M 0 0 
L 4 0 
" id="m6f1f62ffb6" style="stroke:#023474;stroke-width:0.5;"/>
      </defs>
      <g>
       <use style="fill:#023474;stroke:#023474;stroke-width:0.5;" x="37.845" xlink:href="#m6f1f62ffb6" y="104.608732999"/>
      </g>
     </g>
     <g id="line2d_20">
      <defs>
       <path d="M 0 0 
L -4 0 
" id="m143292dee8" style="stroke:#023474;stroke-width:0.5;"/>
      </defs>
      <g>
       <use style="fill:#023474;stroke:#023474;stroke-width:0.5;" x="191.624527559" xlink:href="#m143292dee8" y="104.608732999"/>
      </g>
     </g>
     <g id="text_7">
      <!-- −1.0 -->
      <defs>
       <path d="M 62.09375 22 
L 6.40625 22 
L 6.40625 28.59375 
L 62.09375 28.59375 
z
" id="STIXGeneral-Regular-2212"/>
      </defs>
      <g transform="translate(20.3 106.239514249)scale(0.07 -0.07)">
       <use xlink:href="#STIXGeneral-Regular-2212"/>
       <use x="68.49998474121094" xlink:href="#STIXGeneral-Regular-31"/>
       <use x="118.49996948242188" xlink:href="#STIXGeneral-Regular-2e"/>
       <use x="143.4999542236328" xlink:href="#STIXGeneral-Regular-30"/>
      </g>
     </g>
    </g>
    <g id="ytick_2">
     <g id="line2d_21">
      <path clip-path="url(#p4478b0022b)" d="M 37.845 81.416178 
L 191.624528 81.416178 
" style="fill:none;stroke:#000000;stroke-dasharray:1.000000,3.000000;stroke-dashoffset:0.0;stroke-width:0.5;"/>
     </g>
     <g id="line2d_22">
      <g>
       <use style="fill:#023474;stroke:#023474;stroke-width:0.5;" x="37.845" xlink:href="#m6f1f62ffb6" y="81.4161775233"/>
      </g>
     </g>
     <g id="line2d_23">
      <g>
       <use style="fill:#023474;stroke:#023474;stroke-width:0.5;" x="191.624527559" xlink:href="#m143292dee8" y="81.4161775233"/>
      </g>
     </g>
     <g id="text_8">
      <!-- −0.5 -->
      <g transform="translate(20.3 83.0469587733)scale(0.07 -0.07)">
       <use xlink:href="#STIXGeneral-Regular-2212"/>
       <use x="68.49998474121094" xlink:href="#STIXGeneral-Regular-30"/>
       <use x="118.49996948242188" xlink:href="#STIXGeneral-Regular-2e"/>
       <use x="143.4999542236328" xlink:href="#STIXGeneral-Regular-35"/>
      </g>
     </g>
    </g>
    <g id="ytick_3">
     <g id="line2d_24">
      <path clip-path="url(#p4478b0022b)" d="M 37.845 58.223622 
L 191.624528 58.223622 
" style="fill:none;stroke:#000000;stroke-dasharray:1.000000,3.000000;stroke-dashoffset:0.0;stroke-width:0.5;"/>
     </g>
     <g id="line2d_25">
      <g>
       <use style="fill:#023474;stroke:#023474;stroke-width:0.5;" x="37.845" xlink:href="#m6f1f62ffb6" y="58.2236220472"/>
      </g>
     </g>
     <g id="line2d_26">
      <g>
       <use style="fill:#023474;stroke:#023474;stroke-width:0.5;" x="191.624527559" xlink:href="#m143292dee8" y="58.2236220472"/>
      </g>
     </g>
     <g id="text_9">
      <!-- 0.0 -->
      <g transform="translate(25.095 59.8544032972)scale(0.07 -0.07)">
       <use xlink:href="#STIXGeneral-Regular-30"/>
       <use x="49.99998474121094" xlink:href="#STIXGeneral-Regular-2e"/>
       <use x="74.99996948242188" xlink:href="#STIXGeneral-Regular-30"/>
      </g>
     </g>
    </g>
    <g id="ytick_4">
     <g id="line2d_27">
      <path clip-path="url(#p4478b0022b)" d="M 37.845 35.031067 
L 191.624528 35.031067 
" style="fill:none;stroke:#000000;stroke-dasharray:1.000000,3.000000;stroke-dashoffset:0.0;stroke-width:0.5;"/>
     </g>
     <g id="line2d_28">
      <g>
       <use style="fill:#023474;stroke:#023474;stroke-width:0.5;" x="37.845" xlink:href="#m6f1f62ffb6" y="35.0310665712"/>
      </g>
     </g>
     <g id="line2d_29">
      <g>
       <use style="fill:#023474;stroke:#023474;stroke-width:0.5;" x="191.624527559" xlink:href="#m143292dee8" y="35.0310665712"/>
      </g>
     </g>
     <g id="text_10">
      <!-- 0.5 -->
      <g transform="translate(25.095 36.6618478212)scale(0.07 -0.07)">
       <use xlink:href="#STIXGeneral-Regular-30"/>
       <use x="49.99998474121094" xlink:href="#STIXGeneral-Regular-2e"/>
       <use x="74.99996948242188" xlink:href="#STIXGeneral-Regular-35"/>
      </g>
     </g>
    </g>
    <g id="ytick_5">
     <g id="line2d_30">
      <path clip-path="url(#p4478b0022b)" d="M 37.845 11.838511 
L 191.624528 11.838511 
" style="fill:none;stroke:#000000;stroke-dasharray:1.000000,3.000000;stroke-dashoffset:0.0;stroke-width:0.5;"/>
     </g>
     <g id="line2d_31">
      <g>
       <use style="fill:#023474;stroke:#023474;stroke-width:0.5;" x="37.845" xlink:href="#m6f1f62ffb6" y="11.8385110952"/>
      </g>
     </g>
     <g id="line2d_32">
      <g>
       <use style="fill:#023474;stroke:#023474;stroke-width:0.5;" x="191.624527559" xlink:href="#m143292dee8" y="11.8385110952"/>
      </g>
     </g>
     <g id="text_11">
      <!-- 1.0 -->
      <g transform="translate(25.095 13.4692923452)scale(0.07 -0.07)">
       <use xlink:href="#STIXGeneral-Regular-31"/>
       <use x="49.99998474121094" xlink:href="#STIXGeneral-Regular-2e"/>
       <use x="74.99996948242188" xlink:href="#STIXGeneral-Regular-30"/>
      </g>
     </g>
    </g>
    <g id="text_12">
     <!-- Y -->
     <defs>
      <path d="M 70.296875 66.203125 
L 70.296875 64.296875 
Q 65.90625 63.90625 63.34375 61.796875 
Q 60.796875 59.703125 56.5 53.09375 
L 41.703125 30.296875 
L 41.703125 11.09375 
Q 41.703125 5.40625 43.59375 3.796875 
Q 45.5 2.203125 52 1.90625 
L 52 0 
L 21.40625 0 
L 21.40625 1.90625 
Q 28.203125 2.40625 29.84375 4.046875 
Q 31.5 5.703125 31.5 12.296875 
L 31.5 29.40625 
L 18.40625 48.59375 
Q 11.59375 58.59375 8.6875 61.34375 
Q 5.796875 64.09375 2.203125 64.296875 
L 2.203125 66.203125 
L 30.09375 66.203125 
L 30.09375 64.296875 
L 27.703125 64.203125 
Q 23 64.09375 23 61.59375 
Q 23 59.5 24.796875 56.90625 
L 39.40625 34.796875 
L 53.90625 57 
Q 55.296875 59.09375 55.296875 61.203125 
Q 55.203125 62.90625 53.75 63.546875 
Q 52.296875 64.203125 48.5 64.296875 
L 48.5 66.203125 
z
" id="STIXGeneral-Regular-59"/>
     </defs>
     <g transform="translate(13.34671875 61.4727626722)rotate(-90.0)scale(0.09 -0.09)">
      <use xlink:href="#STIXGeneral-Regular-59"/>
     </g>
    </g>
   </g>
   <g id="legend_1">
    <g id="patch_7">
     <path d="M 111.264528 32.638437 
L 188.124528 32.638437 
L 188.124528 10.7 
L 111.264528 10.7 
z
" style="fill:#ffffff;stroke:#000000;stroke-linejoin:miter;"/>
    </g>
    <g id="line2d_33">
     <path d="M 114.064528 15.95 
L 128.064528 15.95 
" style="fill:none;stroke:#023474;stroke-linecap:square;"/>
    </g>
    <g id="line2d_34">
     <g>
      <use style="fill:#023474;" x="121.064527559" xlink:href="#m5bc1dd279d" y="15.95"/>
     </g>
    </g>
    <g id="text_13">
     <!-- Line $y=\sin(3\times x)$ -->
     <defs>
      <path d="M 48.5 0 
L 27.703125 0 
L 27.796875 1.5 
Q 31.5 1.796875 32.75 3.640625 
Q 34 5.5 34 10.5 
L 34 30.40625 
Q 34 40.5 26.703125 40.5 
Q 24.203125 40.5 22 39.296875 
Q 19.796875 38.09375 16.40625 34.796875 
L 16.40625 7.203125 
Q 16.40625 4.203125 17.75 3 
Q 19.09375 1.796875 22.90625 1.5 
L 22.90625 0 
L 1.796875 0 
L 1.796875 1.5 
Q 5.59375 1.796875 6.796875 3.34375 
Q 8 4.90625 8 9.40625 
L 8 33.703125 
Q 8 37.40625 7.296875 38.796875 
Q 6.59375 40.203125 4.5 40.203125 
Q 2.5 40.203125 1.59375 39.796875 
L 1.59375 41.5 
Q 8.59375 43.5 15.296875 46 
L 16.09375 45.703125 
L 16.09375 37.90625 
L 16.203125 37.90625 
Q 23.296875 46 30.59375 46 
Q 36.296875 46 39.34375 42 
Q 42.40625 38 42.40625 30.59375 
L 42.40625 8.5 
Q 42.40625 4.5 43.59375 3.203125 
Q 44.796875 1.90625 48.5 1.5 
z
" id="STIXGeneral-Regular-6e"/>
      <path d="M 2.90625 66 
L 4.09375 67.59375 
Q 15.5 60.796875 22 49.1875 
Q 28.5 37.59375 28.5 24.703125 
Q 28.5 -2.59375 3.796875 -17.703125 
L 2.90625 -16.09375 
Q 13.203125 -7.59375 16.546875 0.84375 
Q 19.90625 9.296875 19.90625 24.40625 
Q 19.90625 39.59375 16.546875 48.75 
Q 13.203125 57.90625 2.90625 66 
" id="STIXGeneral-Regular-29"/>
      <path id="STIXGeneral-Regular-20"/>
      <path d="M 15.59375 30.09375 
L 26 23.796875 
Q 31 20.796875 32.890625 18.1875 
Q 34.796875 15.59375 34.796875 11.5 
Q 34.796875 6.5 30.640625 2.75 
Q 26.5 -1 20.796875 -1 
Q 16.09375 -1 13.5 -0.09375 
Q 10.796875 0.796875 8.90625 0.796875 
Q 7.203125 0.796875 6.5 -0.40625 
L 5.203125 -0.40625 
L 5.203125 15.296875 
L 6.796875 15.296875 
Q 8.40625 8 11.40625 4.59375 
Q 14.40625 1.203125 19.5 1.203125 
Q 23.203125 1.203125 25.5 3.296875 
Q 27.796875 5.40625 27.796875 8.59375 
Q 27.796875 13.203125 22.5 16.09375 
L 17.09375 19.09375 
Q 5.09375 25.796875 5.09375 33.59375 
Q 5.09375 39.40625 8.84375 42.65625 
Q 12.59375 45.90625 18.90625 45.90625 
Q 23.296875 45.90625 25.59375 44.796875 
Q 27.40625 44 28.40625 44 
Q 29.09375 44 30 45 
L 31.09375 45 
L 31.59375 31.40625 
L 30.09375 31.40625 
Q 28.40625 38.203125 25.84375 40.953125 
Q 23.296875 43.703125 18.796875 43.703125 
Q 15.40625 43.703125 13.34375 42 
Q 11.296875 40.296875 11.296875 36.90625 
Q 11.296875 35.203125 12.4375 33.25 
Q 13.59375 31.296875 15.59375 30.09375 
" id="STIXGeneral-Regular-73"/>
      <path d="M 40.796875 16.40625 
L 42.40625 15.703125 
Q 36.40625 -1 21.5 -1 
Q 12.703125 -1 7.59375 5.140625 
Q 2.5 11.296875 2.5 21.703125 
Q 2.5 32.40625 8.203125 39.203125 
Q 13.90625 46 23.203125 46 
Q 32.203125 46 37.09375 39.09375 
Q 40 35.09375 40.5 27.703125 
L 9.703125 27.703125 
Q 10.09375 21.40625 10.9375 18.09375 
Q 11.796875 14.796875 14.296875 11.40625 
Q 18.5 5.90625 25.40625 5.90625 
Q 30.296875 5.90625 33.640625 8.296875 
Q 37 10.703125 40.796875 16.40625 
M 9.90625 30.90625 
L 30.296875 30.90625 
Q 29.40625 37.203125 27.34375 39.796875 
Q 25.296875 42.40625 20.5 42.40625 
Q 16.296875 42.40625 13.5 39.453125 
Q 10.703125 36.5 9.90625 30.90625 
" id="STIXGeneral-Regular-65"/>
      <path d="M 18 63.203125 
Q 18 61 16.5 59.546875 
Q 15 58.09375 12.796875 58.09375 
Q 10.703125 58.09375 9.25 59.546875 
Q 7.796875 61 7.796875 63.203125 
Q 7.796875 65.296875 9.296875 66.796875 
Q 10.796875 68.296875 12.90625 68.296875 
Q 15.09375 68.296875 16.546875 66.796875 
Q 18 65.296875 18 63.203125 
M 25.296875 0 
L 1.59375 0 
L 1.59375 1.5 
Q 6.796875 1.796875 8.140625 3.296875 
Q 9.5 4.796875 9.5 10.40625 
L 9.5 33.09375 
Q 9.5 36.59375 8.796875 38 
Q 8.09375 39.40625 6.203125 39.40625 
Q 3.796875 39.40625 2 38.90625 
L 2 40.5 
L 17.5 46 
L 17.90625 45.59375 
L 17.90625 10.5 
Q 17.90625 4.90625 19.15625 3.40625 
Q 20.40625 1.90625 25.296875 1.5 
z
" id="STIXGeneral-Regular-69"/>
      <path d="M 24.296875 35.5 
L 25.5 29.796875 
Q 30.796875 37.90625 34.046875 41 
Q 37.296875 44.09375 40.59375 44.09375 
Q 42.40625 44.09375 43.546875 43.046875 
Q 44.703125 42 44.703125 40.390625 
Q 44.703125 38.796875 43.75 37.796875 
Q 42.796875 36.796875 41.296875 36.796875 
Q 40.40625 36.796875 38.90625 37.640625 
Q 37.40625 38.5 36.09375 38.5 
Q 33.203125 38.5 26.296875 26.40625 
Q 26.296875 25.09375 27.09375 21.90625 
L 30.296875 8.5 
Q 31.296875 4.40625 33.296875 4.40625 
Q 34.90625 4.40625 38 8.40625 
Q 38.296875 8.796875 38.6875 9.34375 
Q 39.09375 9.90625 39.390625 10.34375 
Q 39.703125 10.796875 40.09375 11.203125 
L 41.59375 10.296875 
Q 37.296875 3.59375 34.796875 1.25 
Q 32.296875 -1.09375 29.40625 -1.09375 
Q 27 -1.09375 25.703125 0.40625 
Q 24.40625 1.90625 23.5 5.703125 
L 20.59375 17.59375 
L 11.796875 5.703125 
Q 8.703125 1.5 6.75 0.203125 
Q 4.796875 -1.09375 2.296875 -1.09375 
Q 0 -1.09375 -1.34375 0 
Q -2.703125 1.09375 -2.703125 3.09375 
Q -2.703125 4.59375 -1.75 5.640625 
Q -0.796875 6.703125 0.703125 6.703125 
Q 1.90625 6.703125 3.90625 5.59375 
Q 5.40625 4.703125 6.5 4.703125 
Q 8.203125 4.703125 11.59375 9.59375 
L 19.796875 21.203125 
L 17 33.59375 
Q 16 38 15.140625 39.203125 
Q 14.296875 40.40625 12.40625 40.40625 
Q 11.203125 40.40625 8.5 39.703125 
L 6.703125 39.203125 
L 6.40625 40.796875 
L 7.5 41.203125 
Q 15.5 44.09375 19.203125 44.09375 
Q 21.09375 44.09375 22.1875 42.296875 
Q 23.296875 40.5 24.296875 35.5 
" id="STIXGeneral-Italic-78"/>
      <path d="M 59.796875 17.40625 
L 55 0 
L 1.203125 0 
L 1.203125 1.90625 
Q 6.703125 2.203125 8.296875 4 
Q 9.90625 5.796875 9.90625 11.5 
L 9.90625 54.59375 
Q 9.90625 60.5 8.453125 62.203125 
Q 7 63.90625 1.203125 64.296875 
L 1.203125 66.203125 
L 29.5 66.203125 
L 29.5 64.296875 
Q 23.40625 63.90625 21.75 62.25 
Q 20.09375 60.59375 20.09375 54.796875 
L 20.09375 8.40625 
Q 20.09375 5.59375 21.84375 4.75 
Q 23.59375 3.90625 29.09375 3.90625 
L 36.09375 3.90625 
Q 48.203125 3.90625 53 10 
Q 55 12.703125 57.203125 17.40625 
z
" id="STIXGeneral-Regular-4c"/>
      <path d="M 24.296875 18.59375 
L 26.40625 7.59375 
Q 33.09375 18.59375 35.84375 24.34375 
Q 38.59375 30.09375 38.59375 33.296875 
Q 38.59375 34.90625 36 36.5 
Q 33.40625 38.203125 33.40625 40.40625 
Q 33.40625 42 34.546875 43.046875 
Q 35.703125 44.09375 37.40625 44.09375 
Q 39.59375 44.09375 41.09375 42.5 
Q 42.59375 40.90625 42.59375 38.59375 
Q 42.59375 29.90625 29.5 8.09375 
Q 21.703125 -4.796875 14.34375 -12.6875 
Q 7 -20.59375 2.703125 -20.59375 
Q 0.40625 -20.59375 -1 -19.390625 
Q -2.40625 -18.203125 -2.40625 -16.296875 
Q -2.40625 -14.59375 -1.25 -13.4375 
Q -0.09375 -12.296875 1.5 -12.296875 
Q 3.40625 -12.296875 4.90625 -13.6875 
Q 6.40625 -15.09375 7.59375 -15.09375 
Q 9.40625 -15.09375 12.40625 -11.796875 
Q 13.703125 -10.5 16.25 -7.140625 
Q 18.796875 -3.796875 19.5 -2.703125 
Q 20.5 -0.703125 20.5 0.796875 
Q 20.5 3.796875 17.390625 16.34375 
Q 14.296875 28.90625 12.296875 34 
Q 10.90625 37.703125 9.25 39.046875 
Q 7.59375 40.40625 4.59375 40.40625 
Q 3 40.40625 1.5 40 
L 1.5 41.703125 
Q 3.703125 42.09375 4.703125 42.296875 
Q 8.796875 43.09375 15.40625 44.09375 
L 15.796875 44.09375 
Q 16.90625 44.09375 19.953125 34.796875 
Q 23 25.5 24.296875 18.59375 
" id="STIXGeneral-Italic-79"/>
      <path d="M 30.40625 -16.09375 
L 29.203125 -17.703125 
Q 17.59375 -11.09375 11.1875 0.5 
Q 4.796875 12.09375 4.796875 25.203125 
Q 4.796875 52.90625 29.5 67.59375 
L 30.40625 66 
Q 20.203125 57.296875 16.796875 48.84375 
Q 13.40625 40.40625 13.40625 25.5 
Q 13.40625 10.703125 16.90625 1.5 
Q 20.40625 -7.703125 30.40625 -16.09375 
" id="STIXGeneral-Regular-28"/>
      <path d="M 6.09375 51 
L 4.5 51.40625 
Q 6.796875 58.90625 11.6875 63.25 
Q 16.59375 67.59375 24.09375 67.59375 
Q 31.09375 67.59375 35.390625 63.796875 
Q 39.703125 60 39.703125 53.90625 
Q 39.703125 45.703125 30.40625 40.09375 
Q 35.90625 37.703125 38.703125 34.796875 
Q 43.09375 29.90625 43.09375 21.90625 
Q 43.09375 13.90625 38.5 7.90625 
Q 35.09375 3.296875 28.75 0.9375 
Q 22.40625 -1.40625 15.296875 -1.40625 
Q 4.09375 -1.40625 4.09375 4.296875 
Q 4.09375 5.90625 5.296875 6.90625 
Q 6.5 7.90625 8.203125 7.90625 
Q 10.703125 7.90625 14.296875 5.296875 
Q 18.703125 2.203125 22.90625 2.203125 
Q 28.40625 2.203125 32.15625 6.640625 
Q 35.90625 11.09375 35.90625 17.5 
Q 35.90625 29 25.5 32 
Q 22.40625 33 15.296875 33 
L 15.296875 34.40625 
Q 20.90625 36.296875 23.703125 38 
Q 31.796875 42.59375 31.796875 51.40625 
Q 31.796875 56.40625 28.9375 59 
Q 26.09375 61.59375 21 61.59375 
Q 12 61.59375 6.09375 51 
" id="STIXGeneral-Regular-33"/>
      <path d="M 59.703125 2.203125 
L 55.09375 -2.5 
L 32 20.5 
L 8.90625 -2.5 
L 4.296875 2.09375 
L 27.296875 25.203125 
L 4.296875 48.296875 
L 9 52.90625 
L 32 29.90625 
L 55.09375 52.90625 
L 59.703125 48.40625 
L 36.703125 25.203125 
z
" id="STIXGeneral-Regular-d7"/>
      <path d="M 63.703125 32 
L 4.796875 32 
L 4.796875 38.59375 
L 63.703125 38.59375 
z
M 63.703125 12 
L 4.796875 12 
L 4.796875 18.59375 
L 63.703125 18.59375 
z
" id="STIXGeneral-Regular-3d"/>
     </defs>
     <g transform="translate(133.664527559 18.4)scale(0.07 -0.07)">
      <use transform="translate(0.0 0.703125)" xlink:href="#STIXGeneral-Regular-4c"/>
      <use transform="translate(61.09999084472656 0.703125)" xlink:href="#STIXGeneral-Regular-69"/>
      <use transform="translate(88.89997863769531 0.703125)" xlink:href="#STIXGeneral-Regular-6e"/>
      <use transform="translate(138.89996337890625 0.703125)" xlink:href="#STIXGeneral-Regular-65"/>
      <use transform="translate(183.29995727539062 0.703125)" xlink:href="#STIXGeneral-Regular-20"/>
      <use transform="translate(208.29994201660156 0.703125)" xlink:href="#STIXGeneral-Italic-79"/>
      <use transform="translate(267.1399322509766 0.703125)" xlink:href="#STIXGeneral-Regular-3d"/>
      <use transform="translate(350.0799133300781 0.703125)" xlink:href="#STIXGeneral-Regular-73"/>
      <use transform="translate(388.9799072265625 0.703125)" xlink:href="#STIXGeneral-Regular-69"/>
      <use transform="translate(416.77989501953124 0.703125)" xlink:href="#STIXGeneral-Regular-6e"/>
      <use transform="translate(466.7798797607422 0.703125)" xlink:href="#STIXGeneral-Regular-28"/>
      <use transform="translate(500.0798675537109 0.703125)" xlink:href="#STIXGeneral-Regular-33"/>
      <use transform="translate(564.5198486328126 0.703125)" xlink:href="#STIXGeneral-Regular-d7"/>
      <use transform="translate(642.9598297119142 0.703125)" xlink:href="#STIXGeneral-Italic-78"/>
      <use transform="translate(687.3598236083985 0.703125)" xlink:href="#STIXGeneral-Regular-29"/>
     </g>
    </g>
    <g id="line2d_35">
     <path d="M 114.064528 25.869219 
L 128.064528 25.869219 
" style="fill:none;stroke:#ef0107;stroke-linecap:square;"/>
    </g>
    <g id="line2d_36">
     <g>
      <use style="fill:#ef0107;" x="121.064527559" xlink:href="#m88e18eaaf1" y="25.86921875"/>
     </g>
    </g>
    <g id="text_14">
     <!-- Line $y=\cos(2\times x)$ -->
     <defs>
      <path d="M 47 23.09375 
Q 47 12.59375 40.75 5.796875 
Q 34.5 -1 24.5 -1 
Q 15.296875 -1 9.09375 5.75 
Q 2.90625 12.5 2.90625 22.796875 
Q 2.90625 33.203125 9.09375 39.59375 
Q 15.296875 46 25.40625 46 
Q 34.703125 46 40.84375 39.640625 
Q 47 33.296875 47 23.09375 
M 38 20.40625 
Q 38 31.796875 33 38.203125 
Q 29 43.203125 23.5 43.203125 
Q 18.296875 43.203125 15.09375 38.953125 
Q 11.90625 34.703125 11.90625 27.296875 
Q 11.90625 14.5 17.203125 6.796875 
Q 20.59375 1.796875 26.203125 1.796875 
Q 31.703125 1.796875 34.84375 6.75 
Q 38 11.703125 38 20.40625 
" id="STIXGeneral-Regular-6f"/>
      <path d="M 39.796875 15.59375 
L 41.203125 14.703125 
Q 36.90625 6.296875 33 3.203125 
Q 27.90625 -1 21.5 -1 
Q 13.203125 -1 7.84375 5.25 
Q 2.5 11.5 2.5 21.203125 
Q 2.5 33.90625 10.90625 40.90625 
Q 17.09375 46 24.40625 46 
Q 30.703125 46 35.25 42.953125 
Q 39.796875 39.90625 39.796875 35.703125 
Q 39.796875 34 38.390625 32.75 
Q 37 31.5 35.09375 31.5 
Q 31.59375 31.5 30.296875 36.09375 
L 29.703125 38.296875 
Q 28.90625 41.09375 27.703125 42.09375 
Q 26.5 43.09375 23.796875 43.09375 
Q 17.703125 43.09375 13.953125 38.296875 
Q 10.203125 33.5 10.203125 25.703125 
Q 10.203125 17.09375 14.5 11.640625 
Q 18.796875 6.203125 25.703125 6.203125 
Q 30 6.203125 33.09375 8.25 
Q 36.203125 10.296875 39.796875 15.59375 
" id="STIXGeneral-Regular-63"/>
     </defs>
     <g transform="translate(133.664527559 28.31921875)scale(0.07 -0.07)">
      <use transform="translate(0.0 0.703125)" xlink:href="#STIXGeneral-Regular-4c"/>
      <use transform="translate(61.09999084472656 0.703125)" xlink:href="#STIXGeneral-Regular-69"/>
      <use transform="translate(88.89997863769531 0.703125)" xlink:href="#STIXGeneral-Regular-6e"/>
      <use transform="translate(138.89996337890625 0.703125)" xlink:href="#STIXGeneral-Regular-65"/>
      <use transform="translate(183.29995727539062 0.703125)" xlink:href="#STIXGeneral-Regular-20"/>
      <use transform="translate(208.29994201660156 0.703125)" xlink:href="#STIXGeneral-Italic-79"/>
      <use transform="translate(267.1399322509766 0.703125)" xlink:href="#STIXGeneral-Regular-3d"/>
      <use transform="translate(350.0799133300781 0.703125)" xlink:href="#STIXGeneral-Regular-63"/>
      <use transform="translate(394.4799072265625 0.703125)" xlink:href="#STIXGeneral-Regular-6f"/>
      <use transform="translate(444.4798919677734 0.703125)" xlink:href="#STIXGeneral-Regular-73"/>
      <use transform="translate(483.3798858642578 0.703125)" xlink:href="#STIXGeneral-Regular-28"/>
      <use transform="translate(516.6798736572266 0.703125)" xlink:href="#STIXGeneral-Regular-32"/>
      <use transform="translate(581.1198547363282 0.703125)" xlink:href="#STIXGeneral-Regular-d7"/>
      <use transform="translate(659.5598358154298 0.703125)" xlink:href="#STIXGeneral-Italic-78"/>
      <use transform="translate(703.9598297119142 0.703125)" xlink:href="#STIXGeneral-Regular-29"/>
     </g>
    </g>
   </g>
  </g>
 </g>
 <defs>
  <clipPath id="p4478b0022b">
   <rect height="102.047244094" width="153.779527559" x="37.845" y="7.2"/>
  </clipPath>
 </defs>
</svg>
