<?xml version="1.0" encoding="utf-8" standalone="no"?>
<!DOCTYPE svg PUBLIC "-//W3C//DTD SVG 1.1//EN"
  "http://www.w3.org/Graphics/SVG/1.1/DTD/svg11.dtd">
<!-- Created with matplotlib (http://matplotlib.org/) -->
<svg height="139pt" version="1.1" viewBox="0 0 232 139" width="232pt" xmlns="http://www.w3.org/2000/svg" xmlns:xlink="http://www.w3.org/1999/xlink">
 <defs>
  <style type="text/css">
*{stroke-linecap:butt;stroke-linejoin:round;stroke-miterlimit:100000;}
  </style>
 </defs>
 <g id="figure_1">
  <g id="patch_1">
   <path d="M 0 139.616309 
L 232.82416 139.616309 
L 232.82416 0 
L 0 0 
z
" style="fill:#ffffff;"/>
  </g>
  <g id="axes_1">
   <g id="patch_2">
    <path d="M 40.70538 109.247244 
L 194.484907 109.247244 
L 194.484907 7.2 
L 40.70538 7.2 
z
" style="fill:#ffffff;"/>
   </g>
   <g id="line2d_1">
    <path clip-path="url(#p32cd2c6d96)" d="M 40.70538 58.223622 
L 43.843737 52.557996 
L 46.982095 46.977212 
L 50.120453 41.564844 
L 53.25881 36.401941 
L 56.397168 31.565819 
L 59.535526 27.128898 
L 62.673884 23.157621 
L 65.812241 19.711459 
L 68.950599 16.842017 
L 72.088957 14.592266 
L 75.227314 12.995896 
L 78.365672 12.076812 
L 81.50403 11.848778 
L 84.642387 12.315209 
L 87.780745 13.469119 
L 90.919103 15.293229 
L 94.057461 17.760223 
L 97.195818 20.833158 
L 100.334176 24.466016 
L 103.472534 28.604395 
L 106.610891 33.186322 
L 109.749249 38.143184 
L 112.887607 43.400751 
L 116.025965 48.880291 
L 119.164322 54.499748 
L 122.30268 60.174969 
L 125.441038 65.82097 
L 128.579395 71.353199 
L 131.717753 76.688813 
L 134.856111 81.74791 
L 137.994468 86.454731 
L 141.132826 90.738789 
L 144.271184 94.535933 
L 147.409542 97.789298 
L 150.547899 100.450166 
L 153.686257 102.478691 
L 156.824615 103.844494 
L 159.962972 104.527124 
L 163.10133 104.516358 
L 166.239688 103.812356 
L 169.378046 102.425663 
L 172.516403 100.377042 
L 175.654761 97.697173 
L 178.793119 94.426186 
L 181.931476 90.613065 
L 185.069834 86.314911 
L 188.208192 81.596089 
L 191.346549 76.527264 
L 194.484907 71.184341 
" style="fill:none;stroke:#023474;stroke-linecap:square;"/>
    <defs>
     <path d="M 0 1.5 
C 0.397805 1.5 0.77937 1.341951 1.06066 1.06066 
C 1.341951 0.77937 1.5 0.397805 1.5 0 
C 1.5 -0.397805 1.341951 -0.77937 1.06066 -1.06066 
C 0.77937 -1.341951 0.397805 -1.5 0 -1.5 
C -0.397805 -1.5 -0.77937 -1.341951 -1.06066 -1.06066 
C -1.341951 -0.77937 -1.5 -0.397805 -1.5 0 
C -1.5 0.397805 -1.341951 0.77937 -1.06066 1.06066 
C -0.77937 1.341951 -0.397805 1.5 0 1.5 
z
" id="m04301d3f8d"/>
    </defs>
    <g clip-path="url(#p32cd2c6d96)">
     <use style="fill:#023474;" x="40.7053796067" xlink:href="#m04301d3f8d" y="58.2236220472"/>
     <use style="fill:#023474;" x="43.843737312" xlink:href="#m04301d3f8d" y="52.5579955157"/>
     <use style="fill:#023474;" x="46.9820950173" xlink:href="#m04301d3f8d" y="46.9772118977"/>
     <use style="fill:#023474;" x="50.1204527226" xlink:href="#m04301d3f8d" y="41.5648435819"/>
     <use style="fill:#023474;" x="53.2588104279" xlink:href="#m04301d3f8d" y="36.401940933"/>
     <use style="fill:#023474;" x="56.3971681332" xlink:href="#m04301d3f8d" y="31.5658185606"/>
     <use style="fill:#023474;" x="59.5355258385" xlink:href="#m04301d3f8d" y="27.1288975307"/>
     <use style="fill:#023474;" x="62.6738835438" xlink:href="#m04301d3f8d" y="23.1576208579"/>
     <use style="fill:#023474;" x="65.812241249" xlink:href="#m04301d3f8d" y="19.71145852"/>
     <use style="fill:#023474;" x="68.9505989543" xlink:href="#m04301d3f8d" y="16.8420168931"/>
     <use style="fill:#023474;" x="72.0889566596" xlink:href="#m04301d3f8d" y="14.5922659447"/>
     <use style="fill:#023474;" x="75.2273143649" xlink:href="#m04301d3f8d" y="12.9958957572"/>
     <use style="fill:#023474;" x="78.3656720702" xlink:href="#m04301d3f8d" y="12.0768120182"/>
     <use style="fill:#023474;" x="81.5040297755" xlink:href="#m04301d3f8d" y="11.8487780321"/>
     <use style="fill:#023474;" x="84.6423874808" xlink:href="#m04301d3f8d" y="12.3152086141"/>
     <use style="fill:#023474;" x="87.7807451861" xlink:href="#m04301d3f8d" y="13.4691189534"/>
     <use style="fill:#023474;" x="90.9191028913" xlink:href="#m04301d3f8d" y="15.2932292108"/>
     <use style="fill:#023474;" x="94.0574605966" xlink:href="#m04301d3f8d" y="17.7602232849"/>
     <use style="fill:#023474;" x="97.1958183019" xlink:href="#m04301d3f8d" y="20.8331578714"/>
     <use style="fill:#023474;" x="100.334176007" xlink:href="#m04301d3f8d" y="24.4660156901"/>
     <use style="fill:#023474;" x="103.472533712" xlink:href="#m04301d3f8d" y="28.6043945951"/>
     <use style="fill:#023474;" x="106.610891418" xlink:href="#m04301d3f8d" y="33.186322248"/>
     <use style="fill:#023474;" x="109.749249123" xlink:href="#m04301d3f8d" y="38.1431841559"/>
     <use style="fill:#023474;" x="112.887606828" xlink:href="#m04301d3f8d" y="43.400751175"/>
     <use style="fill:#023474;" x="116.025964534" xlink:href="#m04301d3f8d" y="48.8802910943"/>
     <use style="fill:#023474;" x="119.164322239" xlink:href="#m04301d3f8d" y="54.4997476522"/>
     <use style="fill:#023474;" x="122.302679944" xlink:href="#m04301d3f8d" y="60.174969332"/>
     <use style="fill:#023474;" x="125.441037649" xlink:href="#m04301d3f8d" y="65.8209695323"/>
     <use style="fill:#023474;" x="128.579395355" xlink:href="#m04301d3f8d" y="71.3531992445"/>
     <use style="fill:#023474;" x="131.71775306" xlink:href="#m04301d3f8d" y="76.688813176"/>
     <use style="fill:#023474;" x="134.856110765" xlink:href="#m04301d3f8d" y="81.7479103612"/>
     <use style="fill:#023474;" x="137.994468471" xlink:href="#m04301d3f8d" y="86.4547306801"/>
     <use style="fill:#023474;" x="141.132826176" xlink:href="#m04301d3f8d" y="90.7387893686"/>
     <use style="fill:#023474;" x="144.271183881" xlink:href="#m04301d3f8d" y="94.5359325297"/>
     <use style="fill:#023474;" x="147.409541587" xlink:href="#m04301d3f8d" y="97.7892978399"/>
     <use style="fill:#023474;" x="150.547899292" xlink:href="#m04301d3f8d" y="100.450166064"/>
     <use style="fill:#023474;" x="153.686256997" xlink:href="#m04301d3f8d" y="102.478690627"/>
     <use style="fill:#023474;" x="156.824614702" xlink:href="#m04301d3f8d" y="103.844494317"/>
     <use style="fill:#023474;" x="159.962972408" xlink:href="#m04301d3f8d" y="104.527124187"/>
     <use style="fill:#023474;" x="163.101330113" xlink:href="#m04301d3f8d" y="104.516357835"/>
     <use style="fill:#023474;" x="166.239687818" xlink:href="#m04301d3f8d" y="103.812356488"/>
     <use style="fill:#023474;" x="169.378045524" xlink:href="#m04301d3f8d" y="102.425662586"/>
     <use style="fill:#023474;" x="172.516403229" xlink:href="#m04301d3f8d" y="100.377041908"/>
     <use style="fill:#023474;" x="175.654760934" xlink:href="#m04301d3f8d" y="97.6971726042"/>
     <use style="fill:#023474;" x="178.793118639" xlink:href="#m04301d3f8d" y="94.4261857925"/>
     <use style="fill:#023474;" x="181.931476345" xlink:href="#m04301d3f8d" y="90.6130645903"/>
     <use style="fill:#023474;" x="185.06983405" xlink:href="#m04301d3f8d" y="86.3149105927"/>
     <use style="fill:#023474;" x="188.208191755" xlink:href="#m04301d3f8d" y="81.5960887745"/>
     <use style="fill:#023474;" x="191.346549461" xlink:href="#m04301d3f8d" y="76.5272636224"/>
     <use style="fill:#023474;" x="194.484907166" xlink:href="#m04301d3f8d" y="71.1843409329"/>
    </g>
   </g>
   <g id="patch_3">
    <path d="M 40.70538 7.2 
L 194.484907 7.2 
" style="fill:none;stroke:#000000;stroke-linecap:square;stroke-linejoin:miter;"/>
   </g>
   <g id="patch_4">
    <path d="M 40.70538 109.247244 
L 40.70538 7.2 
" style="fill:none;stroke:#023474;stroke-linecap:square;stroke-linejoin:miter;"/>
   </g>
   <g id="patch_5">
    <path d="M 40.70538 109.247244 
L 194.484907 109.247244 
" style="fill:none;stroke:#000000;stroke-linecap:square;stroke-linejoin:miter;"/>
   </g>
   <g id="patch_6">
    <path d="M 194.484907 109.247244 
L 194.484907 7.2 
" style="fill:none;stroke:#000000;stroke-linecap:square;stroke-linejoin:miter;"/>
   </g>
   <g id="matplotlib.axis_1">
    <g id="xtick_1">
     <g id="line2d_2">
      <path clip-path="url(#p32cd2c6d96)" d="M 40.70538 109.247244 
L 40.70538 7.2 
" style="fill:none;stroke:#000000;stroke-dasharray:1.000000,3.000000;stroke-dashoffset:0.0;stroke-width:0.5;"/>
     </g>
     <g id="line2d_3">
      <defs>
       <path d="M 0 0 
L 0 -4 
" id="m24aabf7055" style="stroke:#000000;stroke-width:0.5;"/>
      </defs>
      <g>
       <use style="stroke:#000000;stroke-width:0.5;" x="40.7053796067" xlink:href="#m24aabf7055" y="109.247244094"/>
      </g>
     </g>
     <g id="line2d_4">
      <defs>
       <path d="M 0 0 
L 0 4 
" id="m4997ca566c" style="stroke:#000000;stroke-width:0.5;"/>
      </defs>
      <g>
       <use style="stroke:#000000;stroke-width:0.5;" x="40.7053796067" xlink:href="#m4997ca566c" y="7.2"/>
      </g>
     </g>
     <g id="text_1">
      <!-- $0.0$ -->
      <defs>
       <path d="M 18.40625 4.796875 
C 18.40625 7.6875 16 9.671875 13.59375 9.671875 
C 10.703125 9.671875 8.703125 7.28125 8.703125 4.890625 
C 8.703125 2 11.09375 0 13.5 0 
C 16.40625 0 18.40625 2.390625 18.40625 4.796875 
" id="CMMI12-58"/>
       <path d="M 42 31.640625 
C 42 37.75 41.90625 48.125 37.703125 56.109375 
C 34 63.109375 28.09375 65.59375 22.90625 65.59375 
C 18.09375 65.59375 12 63.40625 8.203125 56.203125 
C 4.203125 48.71875 3.796875 39.4375 3.796875 31.640625 
C 3.796875 25.953125 3.90625 17.28125 7 9.671875 
C 11.296875 -0.609375 19 -2 22.90625 -2 
C 27.5 -2 34.5 -0.109375 38.59375 9.375 
C 41.59375 16.28125 42 24.359375 42 31.640625 
M 22.90625 -0.40625 
C 16.5 -0.40625 12.703125 5.078125 11.296875 12.6875 
C 10.203125 18.5625 10.203125 27.15625 10.203125 32.75 
C 10.203125 40.4375 10.203125 46.828125 11.5 52.921875 
C 13.40625 61.390625 19 64 22.90625 64 
C 27 64 32.296875 61.296875 34.203125 53.125 
C 35.5 47.4375 35.59375 40.734375 35.59375 32.75 
C 35.59375 26.25 35.59375 18.265625 34.40625 12.375 
C 32.296875 1.484375 26.40625 -0.40625 22.90625 -0.40625 
" id="CMR17-48"/>
      </defs>
      <g transform="translate(35.5510784752 118.090182319)scale(0.07 -0.07)">
       <use transform="scale(0.9962640099626402)" xlink:href="#CMR17-48"/>
       <use transform="translate(45.69047711706103 0.0)scale(0.9962640099626402)" xlink:href="#CMMI12-58"/>
       <use transform="translate(72.78765420688046 0.0)scale(0.9962640099626402)" xlink:href="#CMR17-48"/>
      </g>
     </g>
    </g>
    <g id="xtick_2">
     <g id="line2d_5">
      <path clip-path="url(#p32cd2c6d96)" d="M 79.150261 109.247244 
L 79.150261 7.2 
" style="fill:none;stroke:#000000;stroke-dasharray:1.000000,3.000000;stroke-dashoffset:0.0;stroke-width:0.5;"/>
     </g>
     <g id="line2d_6">
      <g>
       <use style="stroke:#000000;stroke-width:0.5;" x="79.1502614965" xlink:href="#m24aabf7055" y="109.247244094"/>
      </g>
     </g>
     <g id="line2d_7">
      <g>
       <use style="stroke:#000000;stroke-width:0.5;" x="79.1502614965" xlink:href="#m4997ca566c" y="7.2"/>
      </g>
     </g>
     <g id="text_2">
      <!-- $0.5$ -->
      <defs>
       <path d="M 11.40625 57.6875 
C 12.40625 57.28125 16.5 56 20.703125 56 
C 30 56 35.09375 61.109375 38 64.0625 
C 38 64.953125 38 65.5 37.40625 65.5 
C 37.296875 65.5 37.09375 65.5 36.296875 65.046875 
C 32.796875 63.40625 28.703125 62.078125 23.703125 62.078125 
C 20.703125 62.078125 16.203125 62.484375 11.296875 64.671875 
C 10.203125 65.171875 10 65.171875 9.90625 65.171875 
C 9.40625 65.171875 9.296875 65.0625 9.296875 63.078125 
L 9.296875 34.421875 
C 9.296875 32.640625 9.296875 32.140625 10.296875 32.140625 
C 10.796875 32.140625 11 32.34375 11.5 33.03125 
C 14.703125 37.515625 19.09375 39.40625 24.09375 39.40625 
C 27.59375 39.40625 35.09375 37.21875 35.09375 20.140625 
C 35.09375 16.953125 35.09375 11.171875 32.09375 6.578125 
C 29.59375 2.484375 25.703125 0.390625 21.40625 0.390625 
C 14.796875 0.390625 8.09375 5 6.296875 12.71875 
C 6.703125 12.609375 7.5 12.421875 7.90625 12.421875 
C 9.203125 12.421875 11.703125 13.125 11.703125 16.21875 
C 11.703125 18.90625 9.796875 20 7.90625 20 
C 5.59375 20 4.09375 18.59375 4.09375 15.796875 
C 4.09375 7.09375 11 -2 21.59375 -2 
C 31.90625 -2 41.703125 6.875 41.703125 19.75 
C 41.703125 31.71875 33.90625 41 24.203125 41 
C 19.09375 41 14.796875 39.109375 11.40625 35.53125 
z
" id="CMR17-53"/>
      </defs>
      <g transform="translate(73.995960365 118.090182319)scale(0.07 -0.07)">
       <use transform="scale(0.9962640099626402)" xlink:href="#CMR17-48"/>
       <use transform="translate(45.69047711706103 0.0)scale(0.9962640099626402)" xlink:href="#CMMI12-58"/>
       <use transform="translate(72.78765420688046 0.0)scale(0.9962640099626402)" xlink:href="#CMR17-53"/>
      </g>
     </g>
    </g>
    <g id="xtick_3">
     <g id="line2d_8">
      <path clip-path="url(#p32cd2c6d96)" d="M 117.595143 109.247244 
L 117.595143 7.2 
" style="fill:none;stroke:#000000;stroke-dasharray:1.000000,3.000000;stroke-dashoffset:0.0;stroke-width:0.5;"/>
     </g>
     <g id="line2d_9">
      <g>
       <use style="stroke:#000000;stroke-width:0.5;" x="117.595143386" xlink:href="#m24aabf7055" y="109.247244094"/>
      </g>
     </g>
     <g id="line2d_10">
      <g>
       <use style="stroke:#000000;stroke-width:0.5;" x="117.595143386" xlink:href="#m4997ca566c" y="7.2"/>
      </g>
     </g>
     <g id="text_3">
      <!-- $1.0$ -->
      <defs>
       <path d="M 26.59375 63.40625 
C 26.59375 65.5 26.5 65.5 25.09375 65.5 
C 21.203125 61.1875 15.296875 59.796875 9.703125 59.796875 
C 9.40625 59.796875 8.90625 59.796875 8.796875 59.5 
C 8.703125 59.296875 8.703125 59.09375 8.703125 57 
C 11.796875 57 17 57.59375 21 59.984375 
L 21 7.203125 
C 21 3.6875 20.796875 2.5 12.203125 2.5 
L 9.203125 2.5 
L 9.203125 0 
C 14 0 19 0 23.796875 0 
C 28.59375 0 33.59375 0 38.40625 0 
L 38.40625 2.5 
L 35.40625 2.5 
C 26.796875 2.5 26.59375 3.59375 26.59375 7.15625 
z
" id="CMR17-49"/>
      </defs>
      <g transform="translate(112.440842255 118.090182319)scale(0.07 -0.07)">
       <use transform="scale(0.9962640099626402)" xlink:href="#CMR17-49"/>
       <use transform="translate(45.69047711706103 0.0)scale(0.9962640099626402)" xlink:href="#CMMI12-58"/>
       <use transform="translate(72.78765420688046 0.0)scale(0.9962640099626402)" xlink:href="#CMR17-48"/>
      </g>
     </g>
    </g>
    <g id="xtick_4">
     <g id="line2d_11">
      <path clip-path="url(#p32cd2c6d96)" d="M 156.040025 109.247244 
L 156.040025 7.2 
" style="fill:none;stroke:#000000;stroke-dasharray:1.000000,3.000000;stroke-dashoffset:0.0;stroke-width:0.5;"/>
     </g>
     <g id="line2d_12">
      <g>
       <use style="stroke:#000000;stroke-width:0.5;" x="156.040025276" xlink:href="#m24aabf7055" y="109.247244094"/>
      </g>
     </g>
     <g id="line2d_13">
      <g>
       <use style="stroke:#000000;stroke-width:0.5;" x="156.040025276" xlink:href="#m4997ca566c" y="7.2"/>
      </g>
     </g>
     <g id="text_4">
      <!-- $1.5$ -->
      <g transform="translate(150.885724145 118.090182319)scale(0.07 -0.07)">
       <use transform="scale(0.9962640099626402)" xlink:href="#CMR17-49"/>
       <use transform="translate(45.69047711706103 0.0)scale(0.9962640099626402)" xlink:href="#CMMI12-58"/>
       <use transform="translate(72.78765420688046 0.0)scale(0.9962640099626402)" xlink:href="#CMR17-53"/>
      </g>
     </g>
    </g>
    <g id="xtick_5">
     <g id="line2d_14">
      <path clip-path="url(#p32cd2c6d96)" d="M 194.484907 109.247244 
L 194.484907 7.2 
" style="fill:none;stroke:#000000;stroke-dasharray:1.000000,3.000000;stroke-dashoffset:0.0;stroke-width:0.5;"/>
     </g>
     <g id="line2d_15">
      <g>
       <use style="stroke:#000000;stroke-width:0.5;" x="194.484907166" xlink:href="#m24aabf7055" y="109.247244094"/>
      </g>
     </g>
     <g id="line2d_16">
      <g>
       <use style="stroke:#000000;stroke-width:0.5;" x="194.484907166" xlink:href="#m4997ca566c" y="7.2"/>
      </g>
     </g>
     <g id="text_5">
      <!-- $2.0$ -->
      <defs>
       <path d="M 41.703125 15.453125 
L 39.90625 15.453125 
C 38.90625 8.375 38.09375 7.171875 37.703125 6.5625 
C 37.203125 5.765625 30 5.765625 28.59375 5.765625 
L 9.40625 5.765625 
C 13 9.671875 20 16.75 28.5 24.953125 
C 34.59375 30.734375 41.703125 37.53125 41.703125 47.421875 
C 41.703125 59.21875 32.296875 66 21.796875 66 
C 10.796875 66 4.09375 56.3125 4.09375 47.34375 
C 4.09375 43.4375 7 42.9375 8.203125 42.9375 
C 9.203125 42.9375 12.203125 43.546875 12.203125 47.03125 
C 12.203125 50.109375 9.59375 51 8.203125 51 
C 7.59375 51 7 50.90625 6.59375 50.703125 
C 8.5 59.21875 14.296875 63.40625 20.40625 63.40625 
C 29.09375 63.40625 34.796875 56.515625 34.796875 47.421875 
C 34.796875 38.734375 29.703125 31.25 24 24.75 
L 4.09375 2.28125 
L 4.09375 0 
L 39.296875 0 
z
" id="CMR17-50"/>
      </defs>
      <g transform="translate(189.330606034 118.090182319)scale(0.07 -0.07)">
       <use transform="scale(0.9962640099626402)" xlink:href="#CMR17-50"/>
       <use transform="translate(45.69047711706103 0.0)scale(0.9962640099626402)" xlink:href="#CMMI12-58"/>
       <use transform="translate(72.78765420688046 0.0)scale(0.9962640099626402)" xlink:href="#CMR17-48"/>
      </g>
     </g>
    </g>
    <g id="text_6">
     <!-- X -->
     <defs>
      <path d="M 34.59375 36.390625 
L 57.203125 69 
L 48 69 
L 30.5 43.15625 
L 12.5 69 
L 2.59375 69 
L 26.40625 36.390625 
L 1.296875 0 
L 10.5 0 
L 30.5 30.328125 
L 51.203125 0 
L 61.09375 0 
z
" id="CMSS17-88"/>
     </defs>
     <g transform="translate(114.516432814 130.672846572)scale(0.09 -0.09)">
      <use transform="scale(0.9962640099626402)" xlink:href="#CMSS17-88"/>
     </g>
    </g>
   </g>
   <g id="matplotlib.axis_2">
    <g id="ytick_1">
     <g id="line2d_17">
      <path clip-path="url(#p32cd2c6d96)" d="M 40.70538 104.608733 
L 194.484907 104.608733 
" style="fill:none;stroke:#000000;stroke-dasharray:1.000000,3.000000;stroke-dashoffset:0.0;stroke-width:0.5;"/>
     </g>
     <g id="line2d_18">
      <defs>
       <path d="M 0 0 
L 4 0 
" id="med02412472" style="stroke:#023474;stroke-width:0.5;"/>
      </defs>
      <g>
       <use style="fill:#023474;stroke:#023474;stroke-width:0.5;" x="40.7053796067" xlink:href="#med02412472" y="104.608732999"/>
      </g>
     </g>
     <g id="text_7">
      <!-- $-1.0$ -->
      <defs>
       <path d="M 65.90625 23 
C 67.59375 23 69.40625 23 69.40625 25 
C 69.40625 27 67.59375 27 65.90625 27 
L 11.796875 27 
C 10.09375 27 8.296875 27 8.296875 25 
C 8.296875 23 10.09375 23 11.796875 23 
z
" id="CMSY10-0"/>
      </defs>
      <g style="fill:#023474;" transform="translate(20.1701120797 106.352195017)scale(0.07 -0.07)">
       <use transform="scale(0.9962640099626402)" xlink:href="#CMSY10-0"/>
       <use transform="translate(77.4874676506071 0.0)scale(0.9962640099626402)" xlink:href="#CMR17-49"/>
       <use transform="translate(123.17794476766814 0.0)scale(0.9962640099626402)" xlink:href="#CMMI12-58"/>
       <use transform="translate(150.27512185748756 0.0)scale(0.9962640099626402)" xlink:href="#CMR17-48"/>
      </g>
     </g>
    </g>
    <g id="ytick_2">
     <g id="line2d_19">
      <path clip-path="url(#p32cd2c6d96)" d="M 40.70538 81.416178 
L 194.484907 81.416178 
" style="fill:none;stroke:#000000;stroke-dasharray:1.000000,3.000000;stroke-dashoffset:0.0;stroke-width:0.5;"/>
     </g>
     <g id="line2d_20">
      <g>
       <use style="fill:#023474;stroke:#023474;stroke-width:0.5;" x="40.7053796067" xlink:href="#med02412472" y="81.4161775233"/>
      </g>
     </g>
     <g id="text_8">
      <!-- $-0.5$ -->
      <g style="fill:#023474;" transform="translate(20.1701120797 83.1596395407)scale(0.07 -0.07)">
       <use transform="scale(0.9962640099626402)" xlink:href="#CMSY10-0"/>
       <use transform="translate(77.4874676506071 0.0)scale(0.9962640099626402)" xlink:href="#CMR17-48"/>
       <use transform="translate(123.17794476766814 0.0)scale(0.9962640099626402)" xlink:href="#CMMI12-58"/>
       <use transform="translate(150.27512185748756 0.0)scale(0.9962640099626402)" xlink:href="#CMR17-53"/>
      </g>
     </g>
    </g>
    <g id="ytick_3">
     <g id="line2d_21">
      <path clip-path="url(#p32cd2c6d96)" d="M 40.70538 58.223622 
L 194.484907 58.223622 
" style="fill:none;stroke:#000000;stroke-dasharray:1.000000,3.000000;stroke-dashoffset:0.0;stroke-width:0.5;"/>
     </g>
     <g id="line2d_22">
      <g>
       <use style="fill:#023474;stroke:#023474;stroke-width:0.5;" x="40.7053796067" xlink:href="#med02412472" y="58.2236220472"/>
      </g>
     </g>
     <g id="text_9">
      <!-- $0.0$ -->
      <g style="fill:#023474;" transform="translate(26.3967773438 59.9670840647)scale(0.07 -0.07)">
       <use transform="scale(0.9962640099626402)" xlink:href="#CMR17-48"/>
       <use transform="translate(45.69047711706103 0.0)scale(0.9962640099626402)" xlink:href="#CMMI12-58"/>
       <use transform="translate(72.78765420688046 0.0)scale(0.9962640099626402)" xlink:href="#CMR17-48"/>
      </g>
     </g>
    </g>
    <g id="ytick_4">
     <g id="line2d_23">
      <path clip-path="url(#p32cd2c6d96)" d="M 40.70538 35.031067 
L 194.484907 35.031067 
" style="fill:none;stroke:#000000;stroke-dasharray:1.000000,3.000000;stroke-dashoffset:0.0;stroke-width:0.5;"/>
     </g>
     <g id="line2d_24">
      <g>
       <use style="fill:#023474;stroke:#023474;stroke-width:0.5;" x="40.7053796067" xlink:href="#med02412472" y="35.0310665712"/>
      </g>
     </g>
     <g id="text_10">
      <!-- $0.5$ -->
      <g style="fill:#023474;" transform="translate(26.3967773438 36.7745285887)scale(0.07 -0.07)">
       <use transform="scale(0.9962640099626402)" xlink:href="#CMR17-48"/>
       <use transform="translate(45.69047711706103 0.0)scale(0.9962640099626402)" xlink:href="#CMMI12-58"/>
       <use transform="translate(72.78765420688046 0.0)scale(0.9962640099626402)" xlink:href="#CMR17-53"/>
      </g>
     </g>
    </g>
    <g id="ytick_5">
     <g id="line2d_25">
      <path clip-path="url(#p32cd2c6d96)" d="M 40.70538 11.838511 
L 194.484907 11.838511 
" style="fill:none;stroke:#000000;stroke-dasharray:1.000000,3.000000;stroke-dashoffset:0.0;stroke-width:0.5;"/>
     </g>
     <g id="line2d_26">
      <g>
       <use style="fill:#023474;stroke:#023474;stroke-width:0.5;" x="40.7053796067" xlink:href="#med02412472" y="11.8385110952"/>
      </g>
     </g>
     <g id="text_11">
      <!-- $1.0$ -->
      <g style="fill:#023474;" transform="translate(26.3967773438 13.5819731126)scale(0.07 -0.07)">
       <use transform="scale(0.9962640099626402)" xlink:href="#CMR17-49"/>
       <use transform="translate(45.69047711706103 0.0)scale(0.9962640099626402)" xlink:href="#CMMI12-58"/>
       <use transform="translate(72.78765420688046 0.0)scale(0.9962640099626402)" xlink:href="#CMR17-48"/>
      </g>
     </g>
    </g>
    <g id="text_12">
     <!-- Y1 -->
     <defs>
      <path d="M 62.09375 69 
L 53.5 69 
L 38 44.953125 
C 36.796875 43.046875 33.40625 37.890625 31.796875 35 
L 26.90625 42.859375 
L 10.09375 69 
L 0.296875 69 
L 27.09375 27.640625 
L 27.09375 0 
L 35.296875 0 
L 35.296875 27.546875 
z
" id="CMSS17-89"/>
      <path d="M 28.40625 67 
L 26.5 67 
C 21.09375 61.5625 14.796875 60.78125 8.40625 60.78125 
L 8.40625 55 
C 11.296875 55 16 55 20.703125 57.296875 
L 20.703125 5.765625 
L 8.90625 5.765625 
L 8.90625 0 
L 40.203125 0 
L 40.203125 5.765625 
L 28.40625 5.765625 
z
" id="CMSS17-49"/>
     </defs>
     <g style="fill:#023474;" transform="translate(13.4266500623 63.6061779412)rotate(-90.0)scale(0.09 -0.09)">
      <use transform="scale(0.9962640099626402)" xlink:href="#CMSS17-89"/>
      <use transform="translate(62.21785491905356 0.0)scale(0.9962640099626402)" xlink:href="#CMSS17-49"/>
     </g>
    </g>
   </g>
   <g id="legend_1">
    <g id="patch_7">
     <path d="M 44.20538 105.747244 
L 128.891079 105.747244 
L 128.891079 82.699548 
L 44.20538 82.699548 
z
" style="fill:#ffffff;stroke:#000000;stroke-linejoin:miter;"/>
    </g>
    <g id="line2d_27">
     <path d="M 47.00538 88.279934 
L 61.00538 88.279934 
" style="fill:none;stroke:#023474;stroke-linecap:square;"/>
    </g>
    <g id="line2d_28">
     <g>
      <use style="fill:#023474;" x="54.0053796067" xlink:href="#m04301d3f8d" y="88.2799340073"/>
     </g>
    </g>
    <g id="text_13">
     <!-- $y=\sin(3\times x)$ -->
     <defs>
      <path d="M 26.296875 -10.9375 
C 23.59375 -14.671875 19.703125 -18 14.796875 -18 
C 13.59375 -18 8.796875 -18 7.296875 -13.890625 
C 7.59375 -13.984375 8.09375 -13.984375 8.296875 -13.984375 
C 11.296875 -13.984375 13.296875 -11.390625 13.296875 -9.09375 
C 13.296875 -6.796875 11.40625 -6 9.90625 -6 
C 8.296875 -6 4.796875 -7.15625 4.796875 -11.859375 
C 4.796875 -16.734375 9.09375 -20.09375 14.796875 -20.09375 
C 24.796875 -20.09375 34.90625 -10.9375 37.703125 0.09375 
L 47.5 38.828125 
C 47.59375 39.328125 47.796875 39.9375 47.796875 40.53125 
C 47.796875 42.015625 46.59375 43.015625 45.09375 43.015625 
C 44.203125 43.015625 42.09375 42.609375 41.296875 39.609375 
L 33.90625 10.28125 
C 33.40625 8.484375 33.40625 8.28125 32.59375 7.1875 
C 30.59375 4.390625 27.296875 1 22.5 1 
C 16.90625 1 16.40625 6.484375 16.40625 9.1875 
C 16.40625 14.875 19.09375 22.546875 21.796875 29.734375 
C 22.90625 32.625 23.5 34.03125 23.5 36.015625 
C 23.5 40.21875 20.5 44 15.59375 44 
C 6.40625 44 2.703125 29.53125 2.703125 28.734375 
C 2.703125 28.34375 3.09375 27.84375 3.796875 27.84375 
C 4.703125 27.84375 4.796875 28.234375 5.203125 29.640625 
C 7.59375 38.015625 11.40625 42.015625 15.296875 42.015625 
C 16.203125 42.015625 17.90625 42.015625 17.90625 38.71875 
C 17.90625 36.125 16.796875 33.234375 15.296875 29.4375 
C 10.40625 16.359375 10.40625 13.078125 10.40625 10.671875 
C 10.40625 1.203125 17.203125 -1 22.203125 -1 
C 25.09375 -1 28.703125 -0.09375 32.203125 3.59375 
L 32.296875 3.5 
C 30.796875 -2.296875 29.796875 -6.125 26.296875 -10.9375 
" id="CMMI12-121"/>
      <path d="M 22.09375 33.703125 
C 31 33.703125 34.90625 25.96875 34.90625 17.03125 
C 34.90625 5 28.5 0.390625 22.703125 0.390625 
C 17.40625 0.390625 8.796875 3.03125 6.09375 10.828125 
C 6.59375 10.625 7.09375 10.625 7.59375 10.625 
C 10 10.625 11.796875 12.21875 11.796875 14.8125 
C 11.796875 17.703125 9.59375 19 7.59375 19 
C 5.90625 19 3.296875 18.203125 3.296875 14.46875 
C 3.296875 5.234375 12.296875 -2 22.90625 -2 
C 34 -2 42.5 6.71875 42.5 16.953125 
C 42.5 26.671875 34.5 33.6875 25 34.796875 
C 32.59375 36.375 39.90625 43.0625 39.90625 52.015625 
C 39.90625 59.6875 32 65.296875 23 65.296875 
C 13.90625 65.296875 5.90625 59.828125 5.90625 52.015625 
C 5.90625 48.59375 8.5 48 9.796875 48 
C 11.90625 48 13.703125 49.296875 13.703125 51.890625 
C 13.703125 54.46875 11.90625 55.765625 9.796875 55.765625 
C 9.40625 55.765625 8.90625 55.765625 8.5 55.578125 
C 11.40625 61.859375 19.296875 63 22.796875 63 
C 26.296875 63 32.90625 61.328125 32.90625 51.875 
C 32.90625 49.109375 32.5 44.1875 29.09375 39.84375 
C 26.09375 36 22.703125 36 19.40625 35.6875 
C 18.90625 35.6875 16.59375 35.453125 16.203125 35.453125 
C 15.5 35.359375 15.09375 35.265625 15.09375 34.5 
C 15.09375 33.796875 15.203125 33.703125 17.203125 33.703125 
z
" id="CMR17-51"/>
      <path d="M 30.59375 -24.390625 
C 30.59375 -24.296875 30.59375 -24.09375 30.296875 -23.796875 
C 25.703125 -19.125 13.40625 -6.359375 13.40625 24.6875 
C 13.40625 55.765625 25.5 68.421875 30.40625 73.390625 
C 30.40625 73.5 30.59375 73.703125 30.59375 74 
C 30.59375 74.296875 30.296875 74.5 29.90625 74.5 
C 28.796875 74.5 20.296875 67.125 15.40625 56.15625 
C 10.40625 45.109375 9 34.359375 9 24.8125 
C 9 17.625 9.703125 5.484375 15.703125 -7.359375 
C 20.5 -17.734375 28.703125 -25 29.90625 -25 
C 30.40625 -25 30.59375 -24.796875 30.59375 -24.390625 
" id="CMR17-40"/>
      <path d="M 15.5 61.078125 
C 15.5 63.265625 13.703125 65.15625 11.40625 65.15625 
C 9.203125 65.15625 7.296875 63.375 7.296875 61.078125 
C 7.296875 58.890625 9.09375 57 11.40625 57 
C 13.59375 57 15.5 58.796875 15.5 61.078125 
M 3.796875 42.28125 
L 3.796875 39.703125 
C 9.40625 39.703125 10.203125 39.09375 10.203125 34.328125 
L 10.203125 6.671875 
C 10.203125 2.875 9.796875 2.390625 3.40625 2.390625 
L 3.40625 -0.203125 
C 5.796875 0 10.09375 0 12.59375 0 
C 15 0 19.09375 0 21.40625 -0.203125 
L 21.40625 2.390625 
C 15.5 2.390625 15.296875 2.984375 15.296875 6.5625 
L 15.296875 43.375 
z
" id="CMR17-105"/>
      <path d="M 38.90625 27.890625 
L 18.90625 47.796875 
C 17.703125 49 17.5 49.1875 16.703125 49.1875 
C 15.703125 49.1875 14.703125 48.296875 14.703125 47.1875 
C 14.703125 46.5 14.90625 46.296875 16 45.1875 
L 36 25.09375 
L 16 5 
C 14.90625 3.890625 14.703125 3.6875 14.703125 3 
C 14.703125 1.890625 15.703125 1 16.703125 1 
C 17.5 1 17.703125 1.1875 18.90625 2.390625 
L 38.796875 22.296875 
L 59.5 1.59375 
C 59.703125 1.5 60.40625 1 61 1 
C 62.203125 1 63 1.890625 63 3 
C 63 3.1875 63 3.59375 62.703125 4.09375 
C 62.59375 4.296875 46.703125 20 41.703125 25.09375 
L 60 43.390625 
C 60.5 44 62 45.296875 62.5 45.890625 
C 62.59375 46.09375 63 46.5 63 47.1875 
C 63 48.296875 62.203125 49.1875 61 49.1875 
C 60.203125 49.1875 59.796875 48.796875 58.703125 47.6875 
z
" id="CMSY10-2"/>
      <path d="M 41.5 30.203125 
C 41.5 35.296875 40.5 43.59375 28.703125 43.59375 
C 20.796875 43.59375 16.703125 37.5 15.203125 33.5 
L 15.09375 33.5 
L 15.09375 43.59375 
L 3.296875 42.5 
L 3.296875 39.90625 
C 9.203125 39.90625 10.09375 39.296875 10.09375 34.5 
L 10.09375 6.6875 
C 10.09375 2.875 9.703125 2.390625 3.296875 2.390625 
L 3.296875 -0.203125 
C 5.703125 0 10.09375 0 12.703125 0 
C 15.296875 0 19.796875 0 22.203125 -0.203125 
L 22.203125 2.390625 
C 15.796875 2.390625 15.40625 2.78125 15.40625 6.6875 
L 15.40625 25.90625 
C 15.40625 35.109375 21 42 28 42 
C 35.40625 42 36.203125 35.40625 36.203125 30.59375 
L 36.203125 6.6875 
C 36.203125 2.875 35.796875 2.390625 29.40625 2.390625 
L 29.40625 -0.203125 
C 31.796875 0 36.203125 0 38.796875 0 
C 41.40625 0 45.90625 0 48.296875 -0.203125 
L 48.296875 2.390625 
C 41.90625 2.390625 41.5 2.78125 41.5 6.6875 
z
" id="CMR17-110"/>
      <path d="M 26.296875 24.6875 
C 26.296875 31.875 25.59375 44.015625 19.59375 56.859375 
C 14.796875 67.234375 6.59375 74.5 5.40625 74.5 
C 5.09375 74.5 4.703125 74.390625 4.703125 73.890625 
C 4.703125 73.703125 4.796875 73.59375 4.90625 73.390625 
C 9.703125 68.40625 21.90625 55.75 21.90625 24.75 
C 21.90625 -6.359375 9.796875 -19.015625 4.90625 -24.015625 
C 4.796875 -24.203125 4.703125 -24.3125 4.703125 -24.5 
C 4.703125 -25 5.09375 -25 5.40625 -25 
C 6.5 -25 15 -17.625 19.90625 -6.65625 
C 24.90625 4.390625 26.296875 15.140625 26.296875 24.6875 
" id="CMR17-41"/>
      <path d="M 64.296875 31.515625 
C 65.796875 31.515625 67.296875 31.515625 67.296875 33.203125 
C 67.296875 35 65.59375 35 63.90625 35 
L 8 35 
C 6.296875 35 4.59375 35 4.59375 33.203125 
C 4.59375 31.515625 6.09375 31.515625 7.59375 31.515625 
z
M 63.90625 14 
C 65.59375 14 67.296875 14 67.296875 15.796875 
C 67.296875 17.484375 65.796875 17.484375 64.296875 17.484375 
L 7.59375 17.484375 
C 6.09375 17.484375 4.59375 17.484375 4.59375 15.796875 
C 4.59375 14 6.296875 14 8 14 
z
" id="CMR17-61"/>
      <path d="M 30.90625 42.140625 
C 30.90625 43.953125 30.796875 44.046875 30.203125 44.046875 
C 29.796875 44.046875 29.703125 43.953125 28.5 42.453125 
C 28.203125 42.046875 27.296875 41.03125 27 40.640625 
C 23.796875 44.046875 19.296875 44.046875 17.59375 44.046875 
C 6.5 44.046875 2.5 38.234375 2.5 32.4375 
C 2.5 23.40625 12.703125 21.328125 15.59375 20.703125 
C 21.90625 19.421875 24.09375 19.015625 26.203125 17.203125 
C 27.5 16.015625 29.703125 13.8125 29.703125 10.21875 
C 29.703125 6 27.296875 0.59375 18.09375 0.59375 
C 9.40625 0.59375 6.296875 7.1875 4.5 15.953125 
C 4.203125 17.34375 4.203125 17.453125 3.40625 17.453125 
C 2.59375 17.453125 2.5 17.34375 2.5 15.359375 
L 2.5 0.984375 
C 2.5 -0.796875 2.59375 -0.90625 3.203125 -0.90625 
C 3.703125 -0.90625 3.796875 -0.796875 4.296875 0 
C 4.90625 0.890625 6.40625 3.296875 7 4.3125 
C 9 1.609375 12.5 -1 18.09375 -1 
C 28 -1 33.296875 4.421875 33.296875 12.25 
C 33.296875 17.375 30.59375 20.078125 29.296875 21.28125 
C 26.296875 24.390625 22.796875 25.09375 18.59375 25.890625 
C 13.09375 27.109375 6.09375 28.515625 6.09375 34.640625 
C 6.09375 37.234375 7.5 42.765625 17.59375 42.765625 
C 28.296875 42.765625 28.90625 32.71875 29.09375 29.5 
C 29.203125 29 29.703125 28.890625 30 28.890625 
C 30.90625 28.890625 30.90625 29.203125 30.90625 30.90625 
z
" id="CMR17-115"/>
      <path d="M 47.40625 40.71875 
C 44.203125 40.109375 43 37.71875 43 35.828125 
C 43 33.421875 44.90625 32.625 46.296875 32.625 
C 49.296875 32.625 51.40625 35.21875 51.40625 37.921875 
C 51.40625 42.109375 46.59375 44 42.40625 44 
C 36.296875 44 32.90625 38.015625 32 36.125 
C 29.703125 44 23.5 44 21.703125 44 
C 11.5 44 6.09375 30.9375 6.09375 28.734375 
C 6.09375 28.34375 6.5 27.84375 7.203125 27.84375 
C 8 27.84375 8.203125 28.4375 8.40625 28.84375 
C 11.796875 39.921875 18.5 42.015625 21.40625 42.015625 
C 25.90625 42.015625 26.796875 37.8125 26.796875 35.421875 
C 26.796875 33.234375 26.203125 30.9375 25 26.140625 
L 21.59375 12.46875 
C 20.09375 6.484375 17.203125 1 11.90625 1 
C 11.40625 1 8.90625 1 6.796875 2.296875 
C 10.40625 3 11.203125 5.984375 11.203125 7.1875 
C 11.203125 9.1875 9.703125 10.375 7.796875 10.375 
C 5.40625 10.375 2.796875 8.28125 2.796875 5.09375 
C 2.796875 0.890625 7.5 -1 11.796875 -1 
C 16.59375 -1 20 2.796875 22.09375 6.890625 
C 23.703125 1 28.703125 -1 32.40625 -1 
C 42.59375 -1 48 12.078125 48 14.265625 
C 48 14.765625 47.59375 15.171875 47 15.171875 
C 46.09375 15.171875 46 14.671875 45.703125 13.875 
C 43 5.09375 37.203125 1 32.703125 1 
C 29.203125 1 27.296875 3.59375 27.296875 7.6875 
C 27.296875 9.875 27.703125 11.46875 29.296875 18.0625 
L 32.796875 31.625 
C 34.296875 37.625 37.703125 42.015625 42.296875 42.015625 
C 42.5 42.015625 45.296875 42.015625 47.40625 40.71875 
" id="CMMI12-120"/>
     </defs>
     <g transform="translate(66.6053796067 90.7299340073)scale(0.07 -0.07)">
      <use transform="scale(0.9962640099626402)" xlink:href="#CMMI12-121"/>
      <use transform="translate(78.8127894419365 0.0)scale(0.9962640099626402)" xlink:href="#CMR17-61"/>
      <use transform="translate(178.2015865796233 0.0)scale(0.9962640099626402)" xlink:href="#CMR17-115"/>
      <use transform="translate(214.00292421485835 0.0)scale(0.9962640099626402)" xlink:href="#CMR17-105"/>
      <use transform="translate(238.87398269672326 0.0)scale(0.9962640099626402)" xlink:href="#CMR17-110"/>
      <use transform="translate(289.76935247703926 0.0)scale(0.9962640099626402)" xlink:href="#CMR17-40"/>
      <use transform="translate(325.0501202765022 0.0)scale(0.9962640099626402)" xlink:href="#CMR17-51"/>
      <use transform="translate(392.87980437130295 0.0)scale(0.9962640099626402)" xlink:href="#CMSY10-2"/>
      <use transform="translate(492.5064789996498 0.0)scale(0.9962640099626402)" xlink:href="#CMMI12-120"/>
      <use transform="translate(547.9405385322619 0.0)scale(0.9962640099626402)" xlink:href="#CMR17-41"/>
     </g>
    </g>
    <g id="line2d_29">
     <path d="M 47.00538 98.753782 
L 61.00538 98.753782 
" style="fill:none;stroke:#ef0107;stroke-linecap:square;"/>
    </g>
    <g id="line2d_30">
     <defs>
      <path d="M -1.5 1.5 
L 1.5 1.5 
L 1.5 -1.5 
L -1.5 -1.5 
z
" id="mb7ce308b75"/>
     </defs>
     <g>
      <use style="fill:#ef0107;" x="54.0053796067" xlink:href="#mb7ce308b75" y="98.7537820771"/>
     </g>
    </g>
    <g id="text_14">
     <!-- $y=10 \cos(2\times x)$ -->
     <defs>
      <path d="M 43.09375 21.1875 
C 43.09375 34 33.796875 44 22.90625 44 
C 12 44 2.703125 34 2.703125 21.1875 
C 2.703125 8.609375 12 -1 22.90625 -1 
C 33.796875 -1 43.09375 8.609375 43.09375 21.1875 
M 22.90625 0.796875 
C 18.203125 0.796875 14.203125 3.59375 11.90625 7.5 
C 9.40625 11.984375 9.09375 17.59375 9.09375 22 
C 9.09375 26.203125 9.296875 31.40625 11.90625 35.90625 
C 13.90625 39.203125 17.796875 42.40625 22.90625 42.40625 
C 27.40625 42.40625 31.203125 39.90625 33.59375 36.40625 
C 36.703125 31.703125 36.703125 25.109375 36.703125 22 
C 36.703125 18.09375 36.5 12.109375 33.796875 7.296875 
C 31 2.703125 26.703125 0.796875 22.90625 0.796875 
" id="CMR17-111"/>
      <path d="M 34.90625 35 
C 33 35 30.203125 35 30.203125 31.515625 
C 30.203125 28.71875 32.5 27.921875 33.796875 27.921875 
C 34.5 27.921875 37.40625 28.234375 37.40625 31.625 
C 37.40625 38.546875 30.59375 43.796875 22.90625 43.796875 
C 12.296875 43.796875 3.296875 34.03125 3.296875 21.296875 
C 3.296875 8.0625 12.703125 -1 22.90625 -1 
C 35.296875 -1 38.40625 10.578125 38.40625 11.6875 
C 38.40625 12.09375 38.296875 12.390625 37.59375 12.390625 
C 36.90625 12.390625 36.796875 12.296875 36.40625 10.984375 
C 33.796875 2.8125 28.09375 0.796875 23.796875 0.796875 
C 17.40625 0.796875 9.703125 6.671875 9.703125 21.390625 
C 9.703125 36.53125 17.09375 42 23 42 
C 26.90625 42 32.703125 40.203125 34.90625 35 
" id="CMR17-99"/>
     </defs>
     <g transform="translate(66.6053796067 101.203782077)scale(0.07 -0.07)">
      <use transform="scale(0.9962640099626402)" xlink:href="#CMMI12-121"/>
      <use transform="translate(78.8127894419365 0.0)scale(0.9962640099626402)" xlink:href="#CMR17-61"/>
      <use transform="translate(178.2015865796233 0.0)scale(0.9962640099626402)" xlink:href="#CMR17-49"/>
      <use transform="translate(223.89206369668432 0.0)scale(0.9962640099626402)" xlink:href="#CMR17-48"/>
      <use transform="translate(286.1869460470501 0.0)scale(0.9962640099626402)" xlink:href="#CMR17-99"/>
      <use transform="translate(326.6726065097681 0.0)scale(0.9962640099626402)" xlink:href="#CMR17-111"/>
      <use transform="translate(372.3630836268291 0.0)scale(0.9962640099626402)" xlink:href="#CMR17-115"/>
      <use transform="translate(408.1644212620642 0.0)scale(0.9962640099626402)" xlink:href="#CMR17-40"/>
      <use transform="translate(443.4451890615271 0.0)scale(0.9962640099626402)" xlink:href="#CMR17-50"/>
      <use transform="translate(511.2748731563279 0.0)scale(0.9962640099626402)" xlink:href="#CMSY10-2"/>
      <use transform="translate(610.9015477846747 0.0)scale(0.9962640099626402)" xlink:href="#CMMI12-120"/>
      <use transform="translate(666.3356073172868 0.0)scale(0.9962640099626402)" xlink:href="#CMR17-41"/>
     </g>
    </g>
   </g>
  </g>
  <g id="axes_2">
   <g id="line2d_31">
    <path clip-path="url(#p32cd2c6d96)" d="M 40.70538 11.838511 
L 43.843737 11.992978 
L 46.982095 12.45535 
L 50.120453 13.222547 
L 53.25881 14.28946 
L 56.397168 15.648982 
L 59.535526 17.29206 
L 62.673884 19.20775 
L 65.812241 21.383293 
L 68.950599 23.8042 
L 72.088957 26.454346 
L 75.227314 29.316082 
L 78.365672 32.370348 
L 81.50403 35.596801 
L 84.642387 38.973954 
L 87.780745 42.479313 
L 90.919103 46.089531 
L 94.057461 49.780566 
L 97.195818 53.527832 
L 100.334176 57.306374 
L 103.472534 61.091024 
L 106.610891 64.856577 
L 109.749249 68.577954 
L 112.887607 72.230368 
L 116.025965 75.789495 
L 119.164322 79.23163 
L 122.30268 82.533847 
L 125.441038 85.674154 
L 128.579395 88.631635 
L 131.717753 91.386593 
L 134.856111 93.920679 
L 137.994468 96.217016 
L 141.132826 98.26031 
L 144.271184 100.036952 
L 147.409542 101.535109 
L 150.547899 102.744803 
L 153.686257 103.657978 
L 156.824615 104.268551 
L 159.962972 104.572457 
L 163.10133 104.56767 
L 166.239688 104.254223 
L 169.378046 103.634203 
L 172.516403 102.711741 
L 175.654761 101.492979 
L 178.793119 99.986035 
L 181.931476 98.200945 
L 185.069834 96.149599 
L 188.208192 93.845659 
L 191.346549 91.304469 
L 194.484907 88.542954 
" style="fill:none;stroke:#ef0107;stroke-linecap:square;"/>
    <g clip-path="url(#p32cd2c6d96)">
     <use style="fill:#ef0107;" x="40.7053796067" xlink:href="#mb7ce308b75" y="11.8385110952"/>
     <use style="fill:#ef0107;" x="43.843737312" xlink:href="#mb7ce308b75" y="11.992977927"/>
     <use style="fill:#ef0107;" x="46.9820950173" xlink:href="#mb7ce308b75" y="12.455349644"/>
     <use style="fill:#ef0107;" x="50.1204527226" xlink:href="#mb7ce308b75" y="13.2225467625"/>
     <use style="fill:#ef0107;" x="53.2588104279" xlink:href="#mb7ce308b75" y="14.2894596038"/>
     <use style="fill:#ef0107;" x="56.3971681332" xlink:href="#mb7ce308b75" y="15.6489823254"/>
     <use style="fill:#ef0107;" x="59.5355258385" xlink:href="#mb7ce308b75" y="17.2920602473"/>
     <use style="fill:#ef0107;" x="62.6738835438" xlink:href="#mb7ce308b75" y="19.207750158"/>
     <use style="fill:#ef0107;" x="65.812241249" xlink:href="#mb7ce308b75" y="21.3832931981"/>
     <use style="fill:#ef0107;" x="68.9505989543" xlink:href="#mb7ce308b75" y="23.8041998372"/>
     <use style="fill:#ef0107;" x="72.0889566596" xlink:href="#mb7ce308b75" y="26.4543463765"/>
     <use style="fill:#ef0107;" x="75.2273143649" xlink:href="#mb7ce308b75" y="29.3160823358"/>
     <use style="fill:#ef0107;" x="78.3656720702" xlink:href="#mb7ce308b75" y="32.3703480092"/>
     <use style="fill:#ef0107;" x="81.5040297755" xlink:href="#mb7ce308b75" y="35.5968014062"/>
     <use style="fill:#ef0107;" x="84.6423874808" xlink:href="#mb7ce308b75" y="38.9739537334"/>
     <use style="fill:#ef0107;" x="87.7807451861" xlink:href="#mb7ce308b75" y="42.4793125138"/>
     <use style="fill:#ef0107;" x="90.9191028913" xlink:href="#mb7ce308b75" y="46.0895313911"/>
     <use style="fill:#ef0107;" x="94.0574605966" xlink:href="#mb7ce308b75" y="49.7805656206"/>
     <use style="fill:#ef0107;" x="97.1958183019" xlink:href="#mb7ce308b75" y="53.5278322121"/>
     <use style="fill:#ef0107;" x="100.334176007" xlink:href="#mb7ce308b75" y="57.3063736574"/>
     <use style="fill:#ef0107;" x="103.472533712" xlink:href="#mb7ce308b75" y="61.0910241514"/>
     <use style="fill:#ef0107;" x="106.610891418" xlink:href="#mb7ce308b75" y="64.8565772019"/>
     <use style="fill:#ef0107;" x="109.749249123" xlink:href="#mb7ce308b75" y="68.5779535092"/>
     <use style="fill:#ef0107;" x="112.887606828" xlink:href="#mb7ce308b75" y="72.230367999"/>
     <use style="fill:#ef0107;" x="116.025964534" xlink:href="#mb7ce308b75" y="75.789494896"/>
     <use style="fill:#ef0107;" x="119.164322239" xlink:href="#mb7ce308b75" y="79.231629738"/>
     <use style="fill:#ef0107;" x="122.302679944" xlink:href="#mb7ce308b75" y="82.533847252"/>
     <use style="fill:#ef0107;" x="125.441037649" xlink:href="#mb7ce308b75" y="85.6741540411"/>
     <use style="fill:#ef0107;" x="128.579395355" xlink:href="#mb7ce308b75" y="88.6316350648"/>
     <use style="fill:#ef0107;" x="131.71775306" xlink:href="#mb7ce308b75" y="91.3865929366"/>
     <use style="fill:#ef0107;" x="134.856110765" xlink:href="#mb7ce308b75" y="93.9206791132"/>
     <use style="fill:#ef0107;" x="137.994468471" xlink:href="#mb7ce308b75" y="96.2170160984"/>
     <use style="fill:#ef0107;" x="141.132826176" xlink:href="#mb7ce308b75" y="98.260309851"/>
     <use style="fill:#ef0107;" x="144.271183881" xlink:href="#mb7ce308b75" y="100.036951646"/>
     <use style="fill:#ef0107;" x="147.409541587" xlink:href="#mb7ce308b75" y="101.535108711"/>
     <use style="fill:#ef0107;" x="150.547899292" xlink:href="#mb7ce308b75" y="102.744803034"/>
     <use style="fill:#ef0107;" x="153.686256997" xlink:href="#mb7ce308b75" y="103.657977823"/>
     <use style="fill:#ef0107;" x="156.824614702" xlink:href="#mb7ce308b75" y="104.268551158"/>
     <use style="fill:#ef0107;" x="159.962972408" xlink:href="#mb7ce308b75" y="104.572456505"/>
     <use style="fill:#ef0107;" x="163.101330113" xlink:href="#mb7ce308b75" y="104.567669797"/>
     <use style="fill:#ef0107;" x="166.239687818" xlink:href="#mb7ce308b75" y="104.254222914"/>
     <use style="fill:#ef0107;" x="169.378045524" xlink:href="#mb7ce308b75" y="103.634203472"/>
     <use style="fill:#ef0107;" x="172.516403229" xlink:href="#mb7ce308b75" y="102.711740918"/>
     <use style="fill:#ef0107;" x="175.654760934" xlink:href="#mb7ce308b75" y="101.492979029"/>
     <use style="fill:#ef0107;" x="178.793118639" xlink:href="#mb7ce308b75" y="99.9860349903"/>
     <use style="fill:#ef0107;" x="181.931476345" xlink:href="#mb7ce308b75" y="98.2009453363"/>
     <use style="fill:#ef0107;" x="185.06983405" xlink:href="#mb7ce308b75" y="96.1495991035"/>
     <use style="fill:#ef0107;" x="188.208191755" xlink:href="#mb7ce308b75" y="93.8456586482"/>
     <use style="fill:#ef0107;" x="191.346549461" xlink:href="#mb7ce308b75" y="91.3044686522"/>
     <use style="fill:#ef0107;" x="194.484907166" xlink:href="#mb7ce308b75" y="88.5429539241"/>
    </g>
   </g>
   <g id="patch_8">
    <path d="M 40.70538 7.2 
L 194.484907 7.2 
" style="fill:none;stroke:#000000;stroke-linecap:square;stroke-linejoin:miter;"/>
   </g>
   <g id="patch_9">
    <path d="M 40.70538 109.247244 
L 194.484907 109.247244 
" style="fill:none;stroke:#000000;stroke-linecap:square;stroke-linejoin:miter;"/>
   </g>
   <g id="patch_10">
    <path d="M 194.484907 109.247244 
L 194.484907 7.2 
" style="fill:none;stroke:#ef0107;stroke-linecap:square;stroke-linejoin:miter;"/>
   </g>
   <g id="matplotlib.axis_3">
    <g id="ytick_6">
     <g id="line2d_32">
      <path clip-path="url(#p32cd2c6d96)" d="M 40.70538 104.608733 
L 194.484907 104.608733 
" style="fill:none;stroke:#000000;stroke-dasharray:1.000000,3.000000;stroke-dashoffset:0.0;stroke-width:0.5;"/>
     </g>
     <g id="line2d_33">
      <defs>
       <path d="M 0 0 
L -4 0 
" id="m897634d574" style="stroke:#ef0107;stroke-width:0.5;"/>
      </defs>
      <g>
       <use style="fill:#ef0107;stroke:#ef0107;stroke-width:0.5;" x="194.484907166" xlink:href="#m897634d574" y="104.608732999"/>
      </g>
     </g>
     <g id="text_15">
      <!-- $-10$ -->
      <g style="fill:#ef0107;" transform="translate(198.484907166 106.352195017)scale(0.07 -0.07)">
       <use transform="scale(0.9962640099626402)" xlink:href="#CMSY10-0"/>
       <use transform="translate(77.4874676506071 0.0)scale(0.9962640099626402)" xlink:href="#CMR17-49"/>
       <use transform="translate(123.17794476766814 0.0)scale(0.9962640099626402)" xlink:href="#CMR17-48"/>
      </g>
     </g>
    </g>
    <g id="ytick_7">
     <g id="line2d_34">
      <path clip-path="url(#p32cd2c6d96)" d="M 40.70538 81.416178 
L 194.484907 81.416178 
" style="fill:none;stroke:#000000;stroke-dasharray:1.000000,3.000000;stroke-dashoffset:0.0;stroke-width:0.5;"/>
     </g>
     <g id="line2d_35">
      <g>
       <use style="fill:#ef0107;stroke:#ef0107;stroke-width:0.5;" x="194.484907166" xlink:href="#m897634d574" y="81.4161775233"/>
      </g>
     </g>
     <g id="text_16">
      <!-- $-5$ -->
      <g style="fill:#ef0107;" transform="translate(198.484907166 83.1596395407)scale(0.07 -0.07)">
       <use transform="scale(0.9962640099626402)" xlink:href="#CMSY10-0"/>
       <use transform="translate(77.4874676506071 0.0)scale(0.9962640099626402)" xlink:href="#CMR17-53"/>
      </g>
     </g>
    </g>
    <g id="ytick_8">
     <g id="line2d_36">
      <path clip-path="url(#p32cd2c6d96)" d="M 40.70538 58.223622 
L 194.484907 58.223622 
" style="fill:none;stroke:#000000;stroke-dasharray:1.000000,3.000000;stroke-dashoffset:0.0;stroke-width:0.5;"/>
     </g>
     <g id="line2d_37">
      <g>
       <use style="fill:#ef0107;stroke:#ef0107;stroke-width:0.5;" x="194.484907166" xlink:href="#m897634d574" y="58.2236220472"/>
      </g>
     </g>
     <g id="text_17">
      <!-- $0$ -->
      <g style="fill:#ef0107;" transform="translate(198.484907166 59.9670840647)scale(0.07 -0.07)">
       <use transform="scale(0.9962640099626402)" xlink:href="#CMR17-48"/>
      </g>
     </g>
    </g>
    <g id="ytick_9">
     <g id="line2d_38">
      <path clip-path="url(#p32cd2c6d96)" d="M 40.70538 35.031067 
L 194.484907 35.031067 
" style="fill:none;stroke:#000000;stroke-dasharray:1.000000,3.000000;stroke-dashoffset:0.0;stroke-width:0.5;"/>
     </g>
     <g id="line2d_39">
      <g>
       <use style="fill:#ef0107;stroke:#ef0107;stroke-width:0.5;" x="194.484907166" xlink:href="#m897634d574" y="35.0310665712"/>
      </g>
     </g>
     <g id="text_18">
      <!-- $5$ -->
      <g style="fill:#ef0107;" transform="translate(198.484907166 36.7745285887)scale(0.07 -0.07)">
       <use transform="scale(0.9962640099626402)" xlink:href="#CMR17-53"/>
      </g>
     </g>
    </g>
    <g id="ytick_10">
     <g id="line2d_40">
      <path clip-path="url(#p32cd2c6d96)" d="M 40.70538 11.838511 
L 194.484907 11.838511 
" style="fill:none;stroke:#000000;stroke-dasharray:1.000000,3.000000;stroke-dashoffset:0.0;stroke-width:0.5;"/>
     </g>
     <g id="line2d_41">
      <g>
       <use style="fill:#ef0107;stroke:#ef0107;stroke-width:0.5;" x="194.484907166" xlink:href="#m897634d574" y="11.8385110952"/>
      </g>
     </g>
     <g id="text_19">
      <!-- $10$ -->
      <g style="fill:#ef0107;" transform="translate(198.484907166 13.5819731126)scale(0.07 -0.07)">
       <use transform="scale(0.9962640099626402)" xlink:href="#CMR17-49"/>
       <use transform="translate(45.69047711706103 0.0)scale(0.9962640099626402)" xlink:href="#CMR17-48"/>
      </g>
     </g>
    </g>
    <g id="text_20">
     <!-- Y2 -->
     <defs>
      <path d="M 25.796875 21.203125 
C 28.59375 24.078125 32.796875 27.5625 35.703125 31.046875 
C 38.5 34.4375 42.203125 39.234375 42.203125 46.203125 
C 42.203125 57.140625 34.796875 67 22.203125 67 
C 12.296875 67 6.59375 60.828125 3.90625 51.15625 
L 7.796875 45.765625 
C 10 54.84375 13.09375 60.625 20.90625 60.625 
C 29.5 60.625 34.296875 53.640625 34.296875 45.96875 
C 34.296875 36.796875 27.296875 29.703125 22 24.421875 
C 16.09375 18.546875 10.296875 12.5625 4.703125 6.375 
L 4.703125 0 
L 42.203125 0 
L 42.203125 6.765625 
L 25.203125 6.765625 
C 24 6.765625 22.796875 6.765625 21.59375 6.765625 
L 11.59375 6.765625 
L 11.59375 6.859375 
z
" id="CMSS17-50"/>
     </defs>
     <g style="fill:#ef0107;" transform="translate(223.880697731 63.6061779412)rotate(-90.0)scale(0.09 -0.09)">
      <use transform="scale(0.9962640099626402)" xlink:href="#CMSS17-89"/>
      <use transform="translate(62.21785491905356 0.0)scale(0.9962640099626402)" xlink:href="#CMSS17-50"/>
     </g>
    </g>
   </g>
  </g>
 </g>
 <defs>
  <clipPath id="p32cd2c6d96">
   <rect height="102.047244094" width="153.779527559" x="40.7053796067" y="7.2"/>
  </clipPath>
 </defs>
</svg>
